  0
SECTION
  2
HEADER
  9
$ACADVER
  1
AC1024
  9
$ACADMAINTVER
 70
     6
  9
$DWGCODEPAGE
  3
ANSI_1252
  9
$LASTSAVEDBY
  1
Autodesk
  9
$INSBASE
 10
0.0
 20
0.0
 30
0.0
  9
$EXTMIN
 10
1.000000000000000E+20
 20
1.000000000000000E+20
 30
1.000000000000000E+20
  9
$EXTMAX
 10
-1.000000000000000E+20
 20
-1.000000000000000E+20
 30
-1.000000000000000E+20
  9
$LIMMIN
 10
0.0
 20
0.0
  9
$LIMMAX
 10
12.0
 20
9.0
  9
$ORTHOMODE
 70
     0
  9
$REGENMODE
 70
     1
  9
$FILLMODE
 70
     1
  9
$QTEXTMODE
 70
     0
  9
$MIRRTEXT
 70
     0
  9
$LTSCALE
 40
1.0
  9
$ATTMODE
 70
     1
  9
$TEXTSIZE
 40
0.5
  9
$TRACEWID
 40
0.05
  9
$TEXTSTYLE
  7
STANDARD
  9
$CLAYER
  8
joints
  9
$CELTYPE
  6
BYLAYER
  9
$CECOLOR
 62
   256
  9
$CELTSCALE
 40
1.0
  9
$DISPSILH
 70
     0
  9
$DIMSCALE
 40
1.0
  9
$DIMASZ
 40
0.18
  9
$DIMEXO
 40
0.0625
  9
$DIMDLI
 40
0.38
  9
$DIMRND
 40
0.0
  9
$DIMDLE
 40
0.0
  9
$DIMEXE
 40
0.18
  9
$DIMTP
 40
0.0
  9
$DIMTM
 40
0.0
  9
$DIMTXT
 40
0.18
  9
$DIMCEN
 40
0.09
  9
$DIMTSZ
 40
0.0
  9
$DIMTOL
 70
     0
  9
$DIMLIM
 70
     0
  9
$DIMTIH
 70
     1
  9
$DIMTOH
 70
     1
  9
$DIMSE1
 70
     0
  9
$DIMSE2
 70
     0
  9
$DIMTAD
 70
     0
  9
$DIMZIN
 70
     0
  9
$DIMBLK
  1

  9
$DIMASO
 70
     1
  9
$DIMSHO
 70
     1
  9
$DIMPOST
  1

  9
$DIMAPOST
  1

  9
$DIMALT
 70
     0
  9
$DIMALTD
 70
     2
  9
$DIMALTF
 40
25.4
  9
$DIMLFAC
 40
1.0
  9
$DIMTOFL
 70
     0
  9
$DIMTVP
 40
0.0
  9
$DIMTIX
 70
     0
  9
$DIMSOXD
 70
     0
  9
$DIMSAH
 70
     0
  9
$DIMBLK1
  1

  9
$DIMBLK2
  1

  9
$DIMSTYLE
  2
STANDARD
  9
$DIMCLRD
 70
     0
  9
$DIMCLRE
 70
     0
  9
$DIMCLRT
 70
     0
  9
$DIMTFAC
 40
1.0
  9
$DIMGAP
 40
0.09
  9
$DIMJUST
 70
     0
  9
$DIMSD1
 70
     0
  9
$DIMSD2
 70
     0
  9
$DIMTOLJ
 70
     1
  9
$DIMTZIN
 70
     0
  9
$DIMALTZ
 70
     0
  9
$DIMALTTZ
 70
     0
  9
$DIMUPT
 70
     0
  9
$DIMDEC
 70
     4
  9
$DIMTDEC
 70
     4
  9
$DIMALTU
 70
     2
  9
$DIMALTTD
 70
     2
  9
$DIMTXSTY
  7
STANDARD
  9
$DIMAUNIT
 70
     0
  9
$DIMADEC
 70
     0
  9
$DIMALTRND
 40
0.0
  9
$DIMAZIN
 70
     0
  9
$DIMDSEP
 70
    46
  9
$DIMATFIT
 70
     3
  9
$DIMFRAC
 70
     0
  9
$DIMLDRBLK
  1

  9
$DIMLUNIT
 70
     2
  9
$DIMLWD
 70
    -2
  9
$DIMLWE
 70
    -2
  9
$DIMTMOVE
 70
     2
  9
$DIMFXL
 40
1.0
  9
$DIMFXLON
 70
     0
  9
$DIMJOGANG
 40
0.7853981633974483
  9
$DIMTFILL
 70
     0
  9
$DIMTFILLCLR
 70
     0
  9
$DIMARCSYM
 70
     0
  9
$DIMLTYPE
  6

  9
$DIMLTEX1
  6

  9
$DIMLTEX2
  6

  9
$DIMTXTDIRECTION
 70
     0
  9
$LUNITS
 70
     2
  9
$LUPREC
 70
     4
  9
$SKETCHINC
 40
0.1
  9
$FILLETRAD
 40
0.0625
  9
$AUNITS
 70
     0
  9
$AUPREC
 70
     0
  9
$MENU
  1
.
  9
$ELEVATION
 40
0.0
  9
$PELEVATION
 40
0.0
  9
$THICKNESS
 40
0.0
  9
$LIMCHECK
 70
     0
  9
$CHAMFERA
 40
0.0
  9
$CHAMFERB
 40
0.0
  9
$CHAMFERC
 40
0.0
  9
$CHAMFERD
 40
0.0
  9
$SKPOLY
 70
     0
  9
$TDCREATE
 40
2452642.85505088
  9
$TDUCREATE
 40
2452643.063384225
  9
$TDUPDATE
 40
2456037.924594896
  9
$TDUUPDATE
 40
2456038.132928241
  9
$TDINDWG
 40
0.0042459954
  9
$TDUSRTIMER
 40
2456037.975914352
  9
$USRTIMER
 70
     1
  9
$ANGBASE
 50
0.0
  9
$ANGDIR
 70
     0
  9
$PDMODE
 70
     0
  9
$PDSIZE
 40
0.0
  9
$PLINEWID
 40
0.0
  9
$SPLFRAME
 70
     0
  9
$SPLINETYPE
 70
     6
  9
$SPLINESEGS
 70
     8
  9
$HANDSEED
  5
1225
  9
$SURFTAB1
 70
     6
  9
$SURFTAB2
 70
     6
  9
$SURFTYPE
 70
     6
  9
$SURFU
 70
     6
  9
$SURFV
 70
     6
  9
$UCSBASE
  2

  9
$UCSNAME
  2

  9
$UCSORG
 10
0.0
 20
0.0
 30
0.0
  9
$UCSXDIR
 10
1.0
 20
0.0
 30
0.0
  9
$UCSYDIR
 10
0.0
 20
1.0
 30
0.0
  9
$UCSORTHOREF
  2

  9
$UCSORTHOVIEW
 70
     0
  9
$UCSORGTOP
 10
0.0
 20
0.0
 30
0.0
  9
$UCSORGBOTTOM
 10
0.0
 20
0.0
 30
0.0
  9
$UCSORGLEFT
 10
0.0
 20
0.0
 30
0.0
  9
$UCSORGRIGHT
 10
0.0
 20
0.0
 30
0.0
  9
$UCSORGFRONT
 10
0.0
 20
0.0
 30
0.0
  9
$UCSORGBACK
 10
0.0
 20
0.0
 30
0.0
  9
$PUCSBASE
  2

  9
$PUCSNAME
  2

  9
$PUCSORG
 10
0.0
 20
0.0
 30
0.0
  9
$PUCSXDIR
 10
1.0
 20
0.0
 30
0.0
  9
$PUCSYDIR
 10
0.0
 20
1.0
 30
0.0
  9
$PUCSORTHOREF
  2

  9
$PUCSORTHOVIEW
 70
     0
  9
$PUCSORGTOP
 10
0.0
 20
0.0
 30
0.0
  9
$PUCSORGBOTTOM
 10
0.0
 20
0.0
 30
0.0
  9
$PUCSORGLEFT
 10
0.0
 20
0.0
 30
0.0
  9
$PUCSORGRIGHT
 10
0.0
 20
0.0
 30
0.0
  9
$PUCSORGFRONT
 10
0.0
 20
0.0
 30
0.0
  9
$PUCSORGBACK
 10
0.0
 20
0.0
 30
0.0
  9
$USERI1
 70
     0
  9
$USERI2
 70
     0
  9
$USERI3
 70
     0
  9
$USERI4
 70
     0
  9
$USERI5
 70
     0
  9
$USERR1
 40
0.0
  9
$USERR2
 40
0.0
  9
$USERR3
 40
0.0
  9
$USERR4
 40
0.0
  9
$USERR5
 40
0.0
  9
$WORLDVIEW
 70
     1
  9
$SHADEDGE
 70
     3
  9
$SHADEDIF
 70
    70
  9
$TILEMODE
 70
     1
  9
$MAXACTVP
 70
    64
  9
$PINSBASE
 10
0.0
 20
0.0
 30
0.0
  9
$PLIMCHECK
 70
     0
  9
$PEXTMIN
 10
0.0
 20
0.0
 30
0.0
  9
$PEXTMAX
 10
0.0
 20
0.0
 30
0.0
  9
$PLIMMIN
 10
0.0
 20
0.0
  9
$PLIMMAX
 10
0.0
 20
0.0
  9
$UNITMODE
 70
     0
  9
$VISRETAIN
 70
     1
  9
$PLINEGEN
 70
     0
  9
$PSLTSCALE
 70
     1
  9
$TREEDEPTH
 70
  3020
  9
$CMLSTYLE
  2
STANDARD
  9
$CMLJUST
 70
     0
  9
$CMLSCALE
 40
1.0
  9
$PROXYGRAPHICS
 70
     1
  9
$MEASUREMENT
 70
     0
  9
$CELWEIGHT
370
    -1
  9
$ENDCAPS
280
     0
  9
$JOINSTYLE
280
     0
  9
$LWDISPLAY
290
     0
  9
$INSUNITS
 70
     0
  9
$HYPERLINKBASE
  1

  9
$STYLESHEET
  1

  9
$XEDIT
290
     1
  9
$CEPSNTYPE
380
     0
  9
$PSTYLEMODE
290
     1
  9
$FINGERPRINTGUID
  2
{2EA70D74-2113-6CEC-39C3-59BFFE27F9A7}
  9
$VERSIONGUID
  2
{FAEB1C32-E019-11D5-929B-00C0DF256EC4}
  9
$EXTNAMES
290
     1
  9
$PSVPSCALE
 40
0.0
  9
$OLESTARTUP
290
     0
  9
$SORTENTS
280
   127
  9
$INDEXCTL
280
     0
  9
$HIDETEXT
280
     1
  9
$XCLIPFRAME
280
     2
  9
$HALOGAP
280
     0
  9
$OBSCOLOR
 70
   257
  9
$OBSLTYPE
280
     0
  9
$INTERSECTIONDISPLAY
280
     0
  9
$INTERSECTIONCOLOR
 70
   257
  9
$DIMASSOC
280
     2
  9
$PROJECTNAME
  1

  9
$CAMERADISPLAY
290
     0
  9
$LENSLENGTH
 40
50.0
  9
$CAMERAHEIGHT
 40
0.0
  9
$STEPSPERSEC
 40
2.0
  9
$STEPSIZE
 40
6.0
  9
$3DDWFPREC
 40
2.0
  9
$PSOLWIDTH
 40
0.25
  9
$PSOLHEIGHT
 40
4.0
  9
$LOFTANG1
 40
1.570796326794897
  9
$LOFTANG2
 40
1.570796326794897
  9
$LOFTMAG1
 40
0.0
  9
$LOFTMAG2
 40
0.0
  9
$LOFTPARAM
 70
     7
  9
$LOFTNORMALS
280
     1
  9
$LATITUDE
 40
37.795
  9
$LONGITUDE
 40
-122.394
  9
$NORTHDIRECTION
 40
0.0
  9
$TIMEZONE
 70
 -8000
  9
$LIGHTGLYPHDISPLAY
280
     1
  9
$TILEMODELIGHTSYNCH
280
     1
  9
$SOLIDHIST
280
     1
  9
$SHOWHIST
280
     1
  9
$DWFFRAME
280
     2
  9
$DGNFRAME
280
     2
  9
$REALWORLDSCALE
290
     1
  9
$INTERFERECOLOR
 62
   256
  9
$CSHADOW
280
     0
  9
$SHADOWPLANELOCATION
 40
0.0
  0
ENDSEC
  0
SECTION
  2
CLASSES
  0
CLASS
  1
ACDBDICTIONARYWDFLT
  2
AcDbDictionaryWithDefault
  3
ObjectDBX Classes
 90
        0
 91
        4
280
     0
281
     0
  0
CLASS
  1
ACDBPLACEHOLDER
  2
AcDbPlaceHolder
  3
ObjectDBX Classes
 90
        0
 91
        1
280
     0
281
     0
  0
CLASS
  1
LAYOUT
  2
AcDbLayout
  3
ObjectDBX Classes
 90
        0
 91
        1
280
     0
281
     0
  0
CLASS
  1
DICTIONARYVAR
  2
AcDbDictionaryVar
  3
ObjectDBX Classes
 90
        0
 91
        4
280
     0
281
     0
  0
CLASS
  1
TABLESTYLE
  2
AcDbTableStyle
  3
ObjectDBX Classes
 90
     4095
 91
        4
280
     0
281
     0
  0
CLASS
  1
MATERIAL
  2
AcDbMaterial
  3
ObjectDBX Classes
 90
     1153
 91
        4
280
     0
281
     0
  0
CLASS
  1
VISUALSTYLE
  2
AcDbVisualStyle
  3
ObjectDBX Classes
 90
     4095
 91
        4
280
     0
281
     0
  0
CLASS
  1
SCALE
  2
AcDbScale
  3
ObjectDBX Classes
 90
     1153
 91
        4
280
     0
281
     0
  0
CLASS
  1
CELLSTYLEMAP
  2
AcDbCellStyleMap
  3
ObjectDBX Classes
 90
     1152
 91
        4
280
     0
281
     0
  0
CLASS
  1
RASTERVARIABLES
  2
AcDbRasterVariables
  3
ISM
 90
        0
 91
        4
280
     0
281
     0
  0
CLASS
  1
XRECORD
  2
AcDbXrecord
  3
AutoCAD 2000
 90
        0
 91
        1
280
     0
281
     0
  0
CLASS
  1
LWPOLYLINE
  2
AcDbPolyline
  3
AutoCAD 2000
 90
        0
 91
        1
280
     0
281
     1
  0
CLASS
  1
HATCH
  2
AcDbHatch
  3
AutoCAD 2000
 90
        0
 91
        1
280
     0
281
     1
  0
CLASS
  1
DIMASSOC
  2
AcDbDimAssoc
  3
"AcDbDimAssoc|Product Desc:     AcDim ARX App For Dimension|Company:          Autodesk, Inc.|WEB Address:      www.autodesk.com"
 90
        0
 91
        4
280
     0
281
     0
  0
ENDSEC
  0
SECTION
  2
TABLES
  0
TABLE
  2
VPORT
  5
8
330
0
100
AcDbSymbolTable
 70
     1
  0
VPORT
  5
94
330
8
100
AcDbSymbolTableRecord
100
AcDbViewportTableRecord
  2
*ACTIVE
 70
     0
 10
0.0
 20
0.0
 11
1.0
 21
1.0
 12
2.795753287306348
 22
1.826303074330489
 13
0.0
 23
0.0
 14
0.5
 24
0.5
 15
0.5
 25
0.5
 16
0.0
 26
0.0
 36
1.0
 17
0.0
 27
0.0
 37
0.0
 40
5.111551339285652
 41
1.966942148760331
 42
50.0
 43
0.0
 44
0.0
 50
0.0
 51
0.0
 71
    16
 72
  1000
 73
     1
 74
     0
 75
     0
 76
     0
 77
     0
 78
     0
281
     0
 65
     1
110
0.0
120
0.0
130
0.0
111
1.0
121
0.0
131
0.0
112
0.0
122
1.0
132
0.0
 79
     0
146
0.0
 60
     3
 61
     5
292
     1
282
     1
141
0.0
142
0.0
 63
   256
  0
ENDTAB
  0
TABLE
  2
LTYPE
  5
5
330
0
100
AcDbSymbolTable
 70
     1
  0
LTYPE
  5
14
330
5
100
AcDbSymbolTableRecord
100
AcDbLinetypeTableRecord
  2
BYBLOCK
 70
     0
  3

 72
    65
 73
     0
 40
0.0
  0
LTYPE
  5
15
330
5
100
AcDbSymbolTableRecord
100
AcDbLinetypeTableRecord
  2
BYLAYER
 70
     0
  3

 72
    65
 73
     0
 40
0.0
  0
LTYPE
  5
16
330
5
100
AcDbSymbolTableRecord
100
AcDbLinetypeTableRecord
  2
CONTINUOUS
 70
     0
  3
Solid line
 72
    65
 73
     0
 40
0.0
  0
ENDTAB
  0
TABLE
  2
LAYER
  5
2
102
{ACAD_XDICTIONARY
360
480
102
}
330
0
100
AcDbSymbolTable
 70
     7
  0
LAYER
  5
10
330
2
100
AcDbSymbolTableRecord
100
AcDbLayerTableRecord
  2
0
 70
     0
 62
     7
  6
CONTINUOUS
370
    -3
390
486
347
467
  0
LAYER
  5
433
330
2
100
AcDbSymbolTableRecord
100
AcDbLayerTableRecord
  2
DEFPOINTS
 70
     0
 62
     7
  6
CONTINUOUS
290
     0
370
    -3
390
486
347
467
  0
LAYER
  5
483
330
2
100
AcDbSymbolTableRecord
100
AcDbLayerTableRecord
  2
joints
 70
     0
 62
     6
  6
CONTINUOUS
370
    -3
390
486
347
467
1001
AcAecLayerStandard
1000

1000

  0
LAYER
  5
748
330
2
100
AcDbSymbolTableRecord
100
AcDbLayerTableRecord
  2
backplate
 70
     0
 62
     3
  6
CONTINUOUS
370
    -3
390
486
347
467
1001
AcAecLayerStandard
1000

1000

  0
LAYER
  5
95C
330
2
100
AcDbSymbolTableRecord
100
AcDbLayerTableRecord
  2
holes_trace
 70
     0
 62
     1
  6
CONTINUOUS
370
    -3
390
486
347
467
1001
AcAecLayerStandard
1000

1000

  0
LAYER
  5
DC4
330
2
100
AcDbSymbolTableRecord
100
AcDbLayerTableRecord
  2
box
 70
     0
 62
     5
  6
CONTINUOUS
370
    -3
390
486
347
467
1001
AcAecLayerStandard
1000

1000

  0
LAYER
  5
DC9
330
2
100
AcDbSymbolTableRecord
100
AcDbLayerTableRecord
  2
Layer1
 70
     0
 62
     7
  6
CONTINUOUS
370
    -3
390
486
347
467
1001
AcAecLayerStandard
1000

1000

  0
ENDTAB
  0
TABLE
  2
STYLE
  5
3
330
0
100
AcDbSymbolTable
 70
     1
  0
STYLE
  5
11
330
3
100
AcDbSymbolTableRecord
100
AcDbTextStyleTableRecord
  2
STANDARD
 70
     0
 40
0.0
 41
1.0
 50
0.0
 71
     0
 42
0.5
  3
txt
  4

  0
ENDTAB
  0
TABLE
  2
VIEW
  5
6
330
0
100
AcDbSymbolTable
 70
     0
  0
ENDTAB
  0
TABLE
  2
UCS
  5
7
330
0
100
AcDbSymbolTable
 70
     0
  0
ENDTAB
  0
TABLE
  2
APPID
  5
9
330
0
100
AcDbSymbolTable
 70
     3
  0
APPID
  5
12
330
9
100
AcDbSymbolTableRecord
100
AcDbRegAppTableRecord
  2
ACAD
 70
     0
  0
APPID
  5
487
330
9
100
AcDbSymbolTableRecord
100
AcDbRegAppTableRecord
  2
AcAecLayerStandard
 70
     0
  0
APPID
  5
564
330
9
100
AcDbSymbolTableRecord
100
AcDbRegAppTableRecord
  2
ACAD_DSTYLE_DIMRADIAL_EXTENSION
 70
     0
  0
ENDTAB
  0
TABLE
  2
DIMSTYLE
  5
A
330
0
100
AcDbSymbolTable
 70
     2
100
AcDbDimStyleTable
  0
DIMSTYLE
105
27
330
A
100
AcDbSymbolTableRecord
100
AcDbDimStyleTableRecord
  2
STANDARD
 70
     0
178
     0
340
11
  0
DIMSTYLE
105
E1
330
A
100
AcDbSymbolTableRecord
100
AcDbDimStyleTableRecord
  2
ANSI1
 70
     0
178
     0
340
11
  0
ENDTAB
  0
TABLE
  2
BLOCK_RECORD
  5
1
330
0
100
AcDbSymbolTable
 70
    33
  0
BLOCK_RECORD
  5
1F
330
1
100
AcDbSymbolTableRecord
100
AcDbBlockTableRecord
  2
*MODEL_SPACE
340
462
 70
     0
280
     1
281
     0
  0
BLOCK_RECORD
  5
58
330
1
100
AcDbSymbolTableRecord
100
AcDbBlockTableRecord
  2
*PAPER_SPACE
340
463
 70
     0
280
     1
281
     0
  0
BLOCK_RECORD
  5
5D
330
1
100
AcDbSymbolTableRecord
100
AcDbBlockTableRecord
  2
*PAPER_SPACE0
340
0
 70
     0
280
     1
281
     0
  0
BLOCK_RECORD
  5
49D
330
1
100
AcDbSymbolTableRecord
100
AcDbBlockTableRecord
  2
*D1
340
0
 70
     0
280
     1
281
     0
  0
BLOCK_RECORD
  5
589
330
1
100
AcDbSymbolTableRecord
100
AcDbBlockTableRecord
  2
*D2
340
0
 70
     0
280
     1
281
     0
  0
BLOCK_RECORD
  5
5D9
330
1
100
AcDbSymbolTableRecord
100
AcDbBlockTableRecord
  2
*D3
340
0
 70
     0
280
     1
281
     0
  0
BLOCK_RECORD
  5
71A
330
1
100
AcDbSymbolTableRecord
100
AcDbBlockTableRecord
  2
*D4
340
0
 70
     0
280
     1
281
     0
  0
BLOCK_RECORD
  5
72A
330
1
100
AcDbSymbolTableRecord
100
AcDbBlockTableRecord
  2
*D5
340
0
 70
     0
280
     1
281
     0
  0
BLOCK_RECORD
  5
73B
330
1
100
AcDbSymbolTableRecord
100
AcDbBlockTableRecord
  2
*D6
340
0
 70
     0
280
     1
281
     0
  0
BLOCK_RECORD
  5
84F
330
1
100
AcDbSymbolTableRecord
100
AcDbBlockTableRecord
  2
*D7
340
0
 70
     0
280
     1
281
     0
  0
BLOCK_RECORD
  5
85F
330
1
100
AcDbSymbolTableRecord
100
AcDbBlockTableRecord
  2
*D8
340
0
 70
     0
280
     1
281
     0
  0
BLOCK_RECORD
  5
872
330
1
100
AcDbSymbolTableRecord
100
AcDbBlockTableRecord
  2
*D9
340
0
 70
     0
280
     1
281
     0
  0
BLOCK_RECORD
  5
882
330
1
100
AcDbSymbolTableRecord
100
AcDbBlockTableRecord
  2
*D10
340
0
 70
     0
280
     1
281
     0
  0
BLOCK_RECORD
  5
93E
330
1
100
AcDbSymbolTableRecord
100
AcDbBlockTableRecord
  2
*D11
340
0
 70
     0
280
     1
281
     0
  0
BLOCK_RECORD
  5
94E
330
1
100
AcDbSymbolTableRecord
100
AcDbBlockTableRecord
  2
*D12
340
0
 70
     0
280
     1
281
     0
  0
BLOCK_RECORD
  5
A6E
330
1
100
AcDbSymbolTableRecord
100
AcDbBlockTableRecord
  2
*D13
340
0
 70
     0
280
     1
281
     0
  0
BLOCK_RECORD
  5
A7E
330
1
100
AcDbSymbolTableRecord
100
AcDbBlockTableRecord
  2
*D14
340
0
 70
     0
280
     1
281
     0
  0
BLOCK_RECORD
  5
C2A
330
1
100
AcDbSymbolTableRecord
100
AcDbBlockTableRecord
  2
O16049
340
0
 70
     0
280
     1
281
     0
  0
BLOCK_RECORD
  5
C4E
330
1
100
AcDbSymbolTableRecord
100
AcDbBlockTableRecord
  2
e16049
340
0
 70
     0
280
     1
281
     0
  0
BLOCK_RECORD
  5
CB2
330
1
100
AcDbSymbolTableRecord
100
AcDbBlockTableRecord
  2
f16049
340
0
 70
     0
280
     1
281
     0
  0
BLOCK_RECORD
  5
CE0
330
1
100
AcDbSymbolTableRecord
100
AcDbBlockTableRecord
  2
n16049
340
0
 70
     0
280
     1
281
     0
  0
BLOCK_RECORD
  5
D19
330
1
100
AcDbSymbolTableRecord
100
AcDbBlockTableRecord
  2
S16049
340
0
102
{BLKREFS
331
EB3
331
0
102
}
 70
     0
280
     1
281
     0
  0
BLOCK_RECORD
  5
D42
330
1
100
AcDbSymbolTableRecord
100
AcDbBlockTableRecord
  2
Y16049
340
0
 70
     0
280
     1
281
     0
  0
BLOCK_RECORD
  5
D76
330
1
100
AcDbSymbolTableRecord
100
AcDbBlockTableRecord
  2
Z16049
340
0
102
{BLKREFS
331
E81
102
}
 70
     0
280
     1
281
     0
  0
BLOCK_RECORD
  5
DA4
330
1
100
AcDbSymbolTableRecord
100
AcDbBlockTableRecord
  2
q16049
340
0
 70
     0
280
     1
281
     0
  0
BLOCK_RECORD
  5
DF0
330
1
100
AcDbSymbolTableRecord
100
AcDbBlockTableRecord
  2
L16049
340
0
 70
     0
280
     1
281
     0
  0
BLOCK_RECORD
  5
E19
330
1
100
AcDbSymbolTableRecord
100
AcDbBlockTableRecord
  2
d16049
340
0
 70
     0
280
     1
281
     0
  0
BLOCK_RECORD
  5
E41
330
1
100
AcDbSymbolTableRecord
100
AcDbBlockTableRecord
  2
b16049
340
0
102
{BLKREFS
331
FC7
331
0
102
}
 70
     0
280
     1
281
     0
  0
BLOCK_RECORD
  5
E66
330
1
100
AcDbSymbolTableRecord
100
AcDbBlockTableRecord
  2
M16049
340
0
 70
     0
280
     1
281
     0
  0
BLOCK_RECORD
  5
E98
330
1
100
AcDbSymbolTableRecord
100
AcDbBlockTableRecord
  2
a16049
340
0
 70
     0
280
     1
281
     0
  0
BLOCK_RECORD
  5
ED7
330
1
100
AcDbSymbolTableRecord
100
AcDbBlockTableRecord
  2
X16049
340
0
 70
     0
280
     1
281
     0
  0
BLOCK_RECORD
  5
F4C
330
1
100
AcDbSymbolTableRecord
100
AcDbBlockTableRecord
  2
H16049
340
0
 70
     0
280
     1
281
     0
  0
BLOCK_RECORD
  5
F7B
330
1
100
AcDbSymbolTableRecord
100
AcDbBlockTableRecord
  2
R16049
340
0
 70
     0
280
     1
281
     0
  0
BLOCK_RECORD
  5
FAC
330
1
100
AcDbSymbolTableRecord
100
AcDbBlockTableRecord
  2
u16049
340
0
 70
     0
280
     1
281
     0
  0
BLOCK_RECORD
  5
10F6
330
1
100
AcDbSymbolTableRecord
100
AcDbBlockTableRecord
  2
*D32
340
0
 70
     0
280
     1
281
     0
  0
ENDTAB
  0
ENDSEC
  0
SECTION
  2
BLOCKS
  0
BLOCK
  5
20
330
1F
100
AcDbEntity
  8
0
100
AcDbBlockBegin
  2
*MODEL_SPACE
 70
     0
 10
0.0
 20
0.0
 30
0.0
  3
*MODEL_SPACE
  1

  0
ENDBLK
  5
21
330
1F
100
AcDbEntity
  8
0
100
AcDbBlockEnd
  0
BLOCK
  5
5A
330
58
100
AcDbEntity
 67
     1
  8
0
100
AcDbBlockBegin
  2
*PAPER_SPACE
 70
     0
 10
0.0
 20
0.0
 30
0.0
  3
*PAPER_SPACE
  1

  0
ENDBLK
  5
5B
330
58
100
AcDbEntity
 67
     1
  8
0
100
AcDbBlockEnd
  0
BLOCK
  5
5F
330
5D
100
AcDbEntity
  8
0
100
AcDbBlockBegin
  2
*PAPER_SPACE0
 70
     0
 10
0.0
 20
0.0
 30
0.0
  3
*PAPER_SPACE0
  1

  0
ENDBLK
  5
60
330
5D
100
AcDbEntity
  8
0
100
AcDbBlockEnd
  0
BLOCK
  5
4A8
330
49D
100
AcDbEntity
  8
0
100
AcDbBlockBegin
  2
*D1
 70
     1
 10
0.0
 20
0.0
 30
0.0
  3
*D1
  1

  0
LINE
  5
49E
330
49D
100
AcDbEntity
  8
0
 62
     0
370
    -2
100
AcDbLine
 10
-0.0532650277634303
 20
0.625
 30
0.0
 11
0.636065085872934
 21
0.625
 31
0.0
  0
LINE
  5
49F
330
49D
100
AcDbEntity
  8
0
 62
     0
370
    -2
100
AcDbLine
 10
-0.0532650277634303
 20
0.5
 30
0.0
 11
0.636065085872934
 21
0.4999999999999999
 31
0.0
  0
LINE
  5
4A0
330
49D
100
AcDbEntity
  8
0
 62
     0
370
    -2
100
AcDbLine
 10
0.4560650858729339
 20
0.625
 30
0.0
 11
0.4560650858729339
 21
0.985
 31
0.0
  0
LINE
  5
4A1
330
49D
100
AcDbEntity
  8
0
 62
     0
370
    -2
100
AcDbLine
 10
0.4560650858729339
 20
0.4999999999999999
 30
0.0
 11
0.4560650858729339
 21
0.14
 31
0.0
  0
SOLID
  5
4A2
330
49D
100
AcDbEntity
  8
0
 62
     0
100
AcDbTrace
 10
0.4260650858729339
 20
0.8049999999999999
 30
0.0
 11
0.486065085872934
 21
0.8049999999999999
 31
0.0
 12
0.4560650858729339
 22
0.625
 32
0.0
 13
0.4560650858729339
 23
0.625
 33
0.0
  0
SOLID
  5
4A3
330
49D
100
AcDbEntity
  8
0
 62
     0
100
AcDbTrace
 10
0.486065085872934
 20
0.32
 30
0.0
 11
0.4260650858729339
 21
0.32
 31
0.0
 12
0.4560650858729339
 22
0.4999999999999999
 32
0.0
 13
0.4560650858729339
 23
0.4999999999999999
 33
0.0
  0
MTEXT
  5
4A4
330
49D
100
AcDbEntity
  8
0
 62
     0
100
AcDbMText
 10
0.8610650858729338
 20
0.5625
 30
0.0
 40
0.18
 41
0.0
 46
0.0
 71
     5
 72
     1
  1
\A1;0.1250
 73
     1
 44
1.0
  0
POINT
  5
4A5
330
49D
100
AcDbEntity
  8
DEFPOINTS
 62
     0
100
AcDbPoint
 10
-0.1157650277634303
 20
0.625
 30
0.0
  0
POINT
  5
4A6
330
49D
100
AcDbEntity
  8
DEFPOINTS
 62
     0
100
AcDbPoint
 10
-0.1157650277634303
 20
0.5
 30
0.0
  0
POINT
  5
4A7
330
49D
100
AcDbEntity
  8
DEFPOINTS
 62
     0
100
AcDbPoint
 10
0.4560650858729339
 20
0.4999999999999999
 30
0.0
  0
ENDBLK
  5
4A9
330
49D
100
AcDbEntity
  8
0
100
AcDbBlockEnd
  0
BLOCK
  5
590
330
589
100
AcDbEntity
  8
0
100
AcDbBlockBegin
  2
*D2
 70
     1
 10
0.0
 20
0.0
 30
0.0
  3
*D2
  1

  0
LINE
  5
58A
330
589
100
AcDbEntity
  8
joints
 62
     0
370
    -2
100
AcDbLine
 10
2.964578787283444
 20
-0.4228202167933222
 30
0.0
 11
4.136829085213173
 21
0.1839987339684859
 31
0.0
  0
MTEXT
  5
58B
330
589
100
AcDbEntity
  8
joints
 62
     0
100
AcDbMText
 10
2.34032281276993
 20
-1.339745313110197
 30
0.0
 40
0.18
 41
0.0
 46
0.0
 71
     5
 72
     1
  1
\A1;%%c1.5000
 73
     1
 44
1.0
  0
SOLID
  5
58C
330
589
100
AcDbEntity
  8
joints
 62
     0
100
AcDbTrace
 10
3.99076811164916
 20
0.0746086430025637
 30
0.0
 11
3.963185432069078
 21
0.127892747453915
 31
0.0
 12
4.136829085213173
 22
0.1839987339684859
 32
0.0
 13
4.136829085213173
 23
0.1839987339684859
 33
0.0
  0
SOLID
  5
58D
330
589
100
AcDbEntity
  8
joints
 62
     0
100
AcDbTrace
 10
2.950787447493403
 20
-0.3961781645676465
 30
0.0
 11
2.978370127073485
 21
-0.4494622690189979
 31
0.0
 12
2.80472647392939
 22
-0.5055682555335688
 32
0.0
 13
2.80472647392939
 23
-0.5055682555335688
 33
0.0
  0
POINT
  5
58E
330
589
100
AcDbEntity
  8
DEFPOINTS
 62
     0
100
AcDbPoint
 10
2.80472647392939
 20
-0.5055682555335688
 30
0.0
  0
POINT
  5
58F
330
589
100
AcDbEntity
  8
DEFPOINTS
 62
     0
100
AcDbPoint
 10
4.136829085213173
 20
0.1839987339684859
 30
0.0
  0
ENDBLK
  5
591
330
589
100
AcDbEntity
  8
0
100
AcDbBlockEnd
  0
BLOCK
  5
5E0
330
5D9
100
AcDbEntity
  8
0
100
AcDbBlockBegin
  2
*D3
 70
     1
 10
0.0
 20
0.0
 30
0.0
  3
*D3
  1

  0
LINE
  5
5DA
330
5D9
100
AcDbEntity
  8
joints
 62
     0
370
    -2
100
AcDbLine
 10
3.078871304856138
 20
-0.3715792461856193
 30
0.0
 11
4.021208221586932
 21
0.1352749097273994
 31
0.0
  0
MTEXT
  5
5DB
330
5D9
100
AcDbEntity
  8
joints
 62
     0
100
AcDbMText
 10
2.550445592617923
 20
-0.9604977746933583
 30
0.0
 40
0.18
 41
0.0
 46
0.0
 71
     5
 72
     1
  1
\A1;%%c1.2500
 73
     1
 44
1.0
  0
SOLID
  5
5DC
330
5D9
100
AcDbEntity
  8
joints
 62
     0
100
AcDbTrace
 10
3.876895118470902
 20
0.0235890634037851
 30
0.0
 11
3.848473390101948
 21
0.0764303858372876
 31
0.0
 12
4.021208221586932
 22
0.1352749097273994
 32
0.0
 13
4.021208221586932
 23
0.1352749097273994
 33
0.0
  0
SOLID
  5
5DD
330
5D9
100
AcDbEntity
  8
joints
 62
     0
100
AcDbTrace
 10
3.06466044067166
 20
-0.345158584968868
 30
0.0
 11
3.093082169040615
 21
-0.3979999074023705
 31
0.0
 12
2.92034733755563
 22
-0.4568444312924823
 32
0.0
 13
2.92034733755563
 23
-0.4568444312924823
 33
0.0
  0
POINT
  5
5DE
330
5D9
100
AcDbEntity
  8
DEFPOINTS
 62
     0
100
AcDbPoint
 10
2.92034733755563
 20
-0.4568444312924823
 30
0.0
  0
POINT
  5
5DF
330
5D9
100
AcDbEntity
  8
DEFPOINTS
 62
     0
100
AcDbPoint
 10
4.021208221586932
 20
0.1352749097273994
 30
0.0
  0
ENDBLK
  5
5E1
330
5D9
100
AcDbEntity
  8
0
100
AcDbBlockEnd
  0
BLOCK
  5
725
330
71A
100
AcDbEntity
  8
0
100
AcDbBlockBegin
  2
*D4
 70
     1
 10
0.0
 20
0.0
 30
0.0
  3
*D4
  1

  0
LINE
  5
71B
330
71A
100
AcDbEntity
  8
0
 62
     0
370
    -2
100
AcDbLine
 10
11.55231774975957
 20
1.111114655883937
 30
0.0
 11
11.04343035901893
 21
1.111114655883937
 31
0.0
  0
LINE
  5
71C
330
71A
100
AcDbEntity
  8
0
 62
     0
370
    -2
100
AcDbLine
 10
11.55231774975957
 20
-1.774248268739159
 30
0.0
 11
11.04343035901893
 21
-1.774248268739159
 31
0.0
  0
LINE
  5
71D
330
71A
100
AcDbEntity
  8
0
 62
     0
370
    -2
100
AcDbLine
 10
11.22343035901893
 20
0.9311146558839372
 30
0.0
 11
11.22343035901893
 21
-0.151566806427611
 31
0.0
  0
LINE
  5
71E
330
71A
100
AcDbEntity
  8
0
 62
     0
370
    -2
100
AcDbLine
 10
11.22343035901893
 20
-1.594248268739159
 30
0.0
 11
11.22343035901893
 21
-0.5115668064276109
 31
0.0
  0
SOLID
  5
71F
330
71A
100
AcDbEntity
  8
0
 62
     0
100
AcDbTrace
 10
11.25343035901893
 20
0.9311146558839372
 30
0.0
 11
11.19343035901893
 21
0.9311146558839372
 31
0.0
 12
11.22343035901893
 22
1.111114655883937
 32
0.0
 13
11.22343035901893
 23
1.111114655883937
 33
0.0
  0
SOLID
  5
720
330
71A
100
AcDbEntity
  8
0
 62
     0
100
AcDbTrace
 10
11.19343035901893
 20
-1.594248268739159
 30
0.0
 11
11.25343035901893
 21
-1.594248268739159
 31
0.0
 12
11.22343035901893
 22
-1.774248268739159
 32
0.0
 13
11.22343035901893
 23
-1.774248268739159
 33
0.0
  0
MTEXT
  5
721
330
71A
100
AcDbEntity
  8
0
 62
     0
100
AcDbMText
 10
11.22343035901893
 20
-0.3315668064276109
 30
0.0
 40
0.18
 41
0.0
 46
0.0
 71
     5
 72
     1
  1
\A1;2.8854
 73
     1
 44
1.0
  0
POINT
  5
722
330
71A
100
AcDbEntity
  8
DEFPOINTS
 62
     0
100
AcDbPoint
 10
11.61481774975957
 20
1.111114655883937
 30
0.0
  0
POINT
  5
723
330
71A
100
AcDbEntity
  8
DEFPOINTS
 62
     0
100
AcDbPoint
 10
11.61481774975957
 20
-1.774248268739159
 30
0.0
  0
POINT
  5
724
330
71A
100
AcDbEntity
  8
DEFPOINTS
 62
     0
100
AcDbPoint
 10
11.22343035901893
 20
-1.774248268739159
 30
0.0
  0
ENDBLK
  5
726
330
71A
100
AcDbEntity
  8
0
100
AcDbBlockEnd
  0
BLOCK
  5
735
330
72A
100
AcDbEntity
  8
0
100
AcDbBlockBegin
  2
*D5
 70
     1
 10
0.0
 20
0.0
 30
0.0
  3
*D5
  1

  0
LINE
  5
72B
330
72A
100
AcDbEntity
  8
0
 62
     0
370
    -2
100
AcDbLine
 10
11.61481774975957
 20
-1.836748268739159
 30
0.0
 11
11.61481774975957
 21
-2.608299138097586
 31
0.0
  0
LINE
  5
72C
330
72A
100
AcDbEntity
  8
0
 62
     0
370
    -2
100
AcDbLine
 10
15.61481774975957
 20
-1.836748268739159
 30
0.0
 11
15.61481774975957
 21
-2.608299138097586
 31
0.0
  0
LINE
  5
72D
330
72A
100
AcDbEntity
  8
0
 62
     0
370
    -2
100
AcDbLine
 10
11.79481774975957
 20
-2.428299138097586
 30
0.0
 11
13.13481774975957
 21
-2.428299138097586
 31
0.0
  0
LINE
  5
72E
330
72A
100
AcDbEntity
  8
0
 62
     0
370
    -2
100
AcDbLine
 10
15.43481774975957
 20
-2.428299138097586
 30
0.0
 11
14.09481774975957
 21
-2.428299138097586
 31
0.0
  0
SOLID
  5
72F
330
72A
100
AcDbEntity
  8
0
 62
     0
100
AcDbTrace
 10
11.79481774975957
 20
-2.398299138097586
 30
0.0
 11
11.79481774975957
 21
-2.458299138097586
 31
0.0
 12
11.61481774975957
 22
-2.428299138097586
 32
0.0
 13
11.61481774975957
 23
-2.428299138097586
 33
0.0
  0
SOLID
  5
730
330
72A
100
AcDbEntity
  8
0
 62
     0
100
AcDbTrace
 10
15.43481774975957
 20
-2.458299138097586
 30
0.0
 11
15.43481774975957
 21
-2.398299138097586
 31
0.0
 12
15.61481774975957
 22
-2.428299138097586
 32
0.0
 13
15.61481774975957
 23
-2.428299138097586
 33
0.0
  0
MTEXT
  5
731
330
72A
100
AcDbEntity
  8
0
 62
     0
100
AcDbMText
 10
13.61481774975957
 20
-2.428299138097586
 30
0.0
 40
0.18
 41
0.0
 46
0.0
 71
     5
 72
     1
  1
\A1;4.0000
 73
     1
 44
1.0
  0
POINT
  5
732
330
72A
100
AcDbEntity
  8
DEFPOINTS
 62
     0
100
AcDbPoint
 10
11.61481774975957
 20
-1.774248268739159
 30
0.0
  0
POINT
  5
733
330
72A
100
AcDbEntity
  8
DEFPOINTS
 62
     0
100
AcDbPoint
 10
15.61481774975957
 20
-1.774248268739159
 30
0.0
  0
POINT
  5
734
330
72A
100
AcDbEntity
  8
DEFPOINTS
 62
     0
100
AcDbPoint
 10
15.61481774975957
 20
-2.428299138097586
 30
0.0
  0
ENDBLK
  5
736
330
72A
100
AcDbEntity
  8
0
100
AcDbBlockEnd
  0
BLOCK
  5
745
330
73B
100
AcDbEntity
  8
0
100
AcDbBlockBegin
  2
*D6
 70
     1
 10
0.0
 20
0.0
 30
0.0
  3
*D6
  1

  0
LINE
  5
73C
330
73B
100
AcDbEntity
  8
0
 62
     0
370
    -2
100
AcDbLine
 10
15.18704156751675
 20
1.106019018713695
 30
0.0
 11
15.34210937847213
 21
1.197419095330226
 31
0.0
  0
LINE
  5
73D
330
73B
100
AcDbEntity
  8
0
 62
     0
370
    -2
100
AcDbLine
 10
14.78041930767821
 20
0.8663477066970128
 30
0.0
 11
14.62535149672283
 21
0.7749476300804815
 31
0.0
  0
MTEXT
  5
73E
330
73B
100
AcDbEntity
  8
0
 62
     0
100
AcDbMText
 10
16.16200061135923
 20
1.388843840549017
 30
0.0
 40
0.18
 41
0.0
 46
0.0
 71
     5
 72
     1
  1
\A1;%%c0.1120
 73
     1
 44
1.0
  0
SOLID
  5
73F
330
73B
100
AcDbEntity
  8
0
 62
     0
100
AcDbTrace
 10
14.79565265378096
 20
0.8405030715377835
 30
0.0
 11
14.76518596157545
 21
0.8921923418562421
 31
0.0
 12
14.93548711863358
 22
0.957747783313544
 32
0.0
 13
14.93548711863358
 23
0.957747783313544
 33
0.0
  0
SOLID
  5
740
330
73B
100
AcDbEntity
  8
0
 62
     0
100
AcDbTrace
 10
15.171808221414
 20
1.131863653872924
 30
0.0
 11
15.20227491361951
 21
1.080174383554465
 31
0.0
 12
15.03197375656137
 22
1.014618942097163
 32
0.0
 13
15.03197375656137
 23
1.014618942097163
 33
0.0
  0
LINE
  5
741
330
73B
100
AcDbEntity
  8
0
 62
     0
370
    -2
100
AcDbLine
 10
14.89373043759748
 20
0.9861833627053538
 30
0.0
 11
15.07373043759748
 21
0.9861833627053538
 31
0.0
  0
LINE
  5
742
330
73B
100
AcDbEntity
  8
0
 62
     0
370
    -2
100
AcDbLine
 10
14.98373043759748
 20
0.8961833627053538
 30
0.0
 11
14.98373043759748
 21
1.076183362705354
 31
0.0
  0
POINT
  5
743
330
73B
100
AcDbEntity
  8
DEFPOINTS
 62
     0
100
AcDbPoint
 10
15.03197375656137
 20
1.014618942097163
 30
0.0
  0
POINT
  5
744
330
73B
100
AcDbEntity
  8
DEFPOINTS
 62
     0
100
AcDbPoint
 10
14.93548711863358
 20
0.957747783313544
 30
0.0
  0
ENDBLK
  5
746
330
73B
100
AcDbEntity
  8
0
100
AcDbBlockEnd
  0
BLOCK
  5
85A
330
84F
100
AcDbEntity
  8
0
100
AcDbBlockBegin
  2
*D7
 70
     1
 10
0.0
 20
0.0
 30
0.0
  3
*D7
  1

  0
LINE
  5
850
330
84F
100
AcDbEntity
  8
DEFPOINTS
 62
     0
370
    -2
100
AcDbLine
 10
17.07320940542272
 20
2.435731813439666
 30
0.0
 11
16.31654476557841
 21
2.435731813439666
 31
0.0
  0
LINE
  5
851
330
84F
100
AcDbEntity
  8
DEFPOINTS
 62
     0
370
    -2
100
AcDbLine
 10
17.99618563515115
 20
-1.212347315518173
 30
0.0
 11
16.31654476557841
 21
-1.212347315518173
 31
0.0
  0
LINE
  5
852
330
84F
100
AcDbEntity
  8
DEFPOINTS
 62
     0
370
    -2
100
AcDbLine
 10
16.49654476557841
 20
2.255731813439666
 30
0.0
 11
16.49654476557841
 21
0.7916922489607463
 31
0.0
  0
LINE
  5
853
330
84F
100
AcDbEntity
  8
DEFPOINTS
 62
     0
370
    -2
100
AcDbLine
 10
16.49654476557841
 20
-1.032347315518173
 30
0.0
 11
16.49654476557841
 21
0.4316922489607466
 31
0.0
  0
SOLID
  5
854
330
84F
100
AcDbEntity
  8
DEFPOINTS
 62
     0
100
AcDbTrace
 10
16.52654476557841
 20
2.255731813439666
 30
0.0
 11
16.4665447655784
 21
2.255731813439666
 31
0.0
 12
16.49654476557841
 22
2.435731813439666
 32
0.0
 13
16.49654476557841
 23
2.435731813439666
 33
0.0
  0
SOLID
  5
855
330
84F
100
AcDbEntity
  8
DEFPOINTS
 62
     0
100
AcDbTrace
 10
16.4665447655784
 20
-1.032347315518173
 30
0.0
 11
16.52654476557841
 21
-1.032347315518173
 31
0.0
 12
16.49654476557841
 22
-1.212347315518173
 32
0.0
 13
16.49654476557841
 23
-1.212347315518173
 33
0.0
  0
MTEXT
  5
856
330
84F
100
AcDbEntity
  8
DEFPOINTS
 62
     0
100
AcDbMText
 10
16.49654476557841
 20
0.6116922489607464
 30
0.0
 40
0.18
 41
0.0
 46
0.0
 71
     5
 72
     1
  1
\A1;3.6481
 73
     1
 44
1.0
  0
POINT
  5
857
330
84F
100
AcDbEntity
  8
DEFPOINTS
 62
     0
100
AcDbPoint
 10
17.13570940542272
 20
2.435731813439666
 30
0.0
  0
POINT
  5
858
330
84F
100
AcDbEntity
  8
DEFPOINTS
 62
     0
100
AcDbPoint
 10
18.05868563515115
 20
-1.212347315518173
 30
0.0
  0
POINT
  5
859
330
84F
100
AcDbEntity
  8
DEFPOINTS
 62
     0
100
AcDbPoint
 10
16.49654476557841
 20
-1.212347315518173
 30
0.0
  0
ENDBLK
  5
85B
330
84F
100
AcDbEntity
  8
0
100
AcDbBlockEnd
  0
BLOCK
  5
86A
330
85F
100
AcDbEntity
  8
0
100
AcDbBlockBegin
  2
*D8
 70
     1
 10
0.0
 20
0.0
 30
0.0
  3
*D8
  1

  0
LINE
  5
860
330
85F
100
AcDbEntity
  8
DEFPOINTS
 62
     0
370
    -2
100
AcDbLine
 10
17.07320940542272
 20
2.498231813439666
 30
0.0
 11
17.07320940542272
 21
3.186396556737928
 31
0.0
  0
LINE
  5
861
330
85F
100
AcDbEntity
  8
DEFPOINTS
 62
     0
370
    -2
100
AcDbLine
 10
20.08597654690116
 20
0.3021410471349062
 30
0.0
 11
20.08597654690116
 21
3.186396556737928
 31
0.0
  0
LINE
  5
862
330
85F
100
AcDbEntity
  8
DEFPOINTS
 62
     0
370
    -2
100
AcDbLine
 10
17.25320940542272
 20
3.006396556737928
 30
0.0
 11
18.08459297616194
 21
3.006396556737928
 31
0.0
  0
LINE
  5
863
330
85F
100
AcDbEntity
  8
DEFPOINTS
 62
     0
370
    -2
100
AcDbLine
 10
19.90597654690117
 20
3.006396556737928
 30
0.0
 11
19.07459297616194
 21
3.006396556737928
 31
0.0
  0
SOLID
  5
864
330
85F
100
AcDbEntity
  8
DEFPOINTS
 62
     0
100
AcDbTrace
 10
17.25320940542272
 20
3.036396556737928
 30
0.0
 11
17.25320940542272
 21
2.976396556737928
 31
0.0
 12
17.07320940542272
 22
3.006396556737928
 32
0.0
 13
17.07320940542272
 23
3.006396556737928
 33
0.0
  0
SOLID
  5
865
330
85F
100
AcDbEntity
  8
DEFPOINTS
 62
     0
100
AcDbTrace
 10
19.90597654690117
 20
2.976396556737928
 30
0.0
 11
19.90597654690117
 21
3.036396556737928
 31
0.0
 12
20.08597654690116
 22
3.006396556737928
 32
0.0
 13
20.08597654690116
 23
3.006396556737928
 33
0.0
  0
MTEXT
  5
866
330
85F
100
AcDbEntity
  8
DEFPOINTS
 62
     0
100
AcDbMText
 10
18.57959297616194
 20
3.006396556737928
 30
0.0
 40
0.18
 41
0.0
 46
0.0
 71
     5
 72
     1
  1
\A1;3.0128
 73
     1
 44
1.0
  0
POINT
  5
867
330
85F
100
AcDbEntity
  8
DEFPOINTS
 62
     0
100
AcDbPoint
 10
17.07320940542272
 20
2.435731813439666
 30
0.0
  0
POINT
  5
868
330
85F
100
AcDbEntity
  8
DEFPOINTS
 62
     0
100
AcDbPoint
 10
20.08597654690116
 20
0.2396410471349062
 30
0.0
  0
POINT
  5
869
330
85F
100
AcDbEntity
  8
DEFPOINTS
 62
     0
100
AcDbPoint
 10
20.08597654690116
 20
3.006396556737928
 30
0.0
  0
ENDBLK
  5
86B
330
85F
100
AcDbEntity
  8
0
100
AcDbBlockEnd
  0
BLOCK
  5
87D
330
872
100
AcDbEntity
  8
0
100
AcDbBlockBegin
  2
*D9
 70
     1
 10
0.0
 20
0.0
 30
0.0
  3
*D9
  1

  0
LINE
  5
873
330
872
100
AcDbEntity
  8
joints
 62
     0
370
    -2
100
AcDbLine
 10
16.36562681144928
 20
-4.97673295074576
 30
0.0
 11
16.36562681144928
 21
-5.867747830100795
 31
0.0
  0
LINE
  5
874
330
872
100
AcDbEntity
  8
joints
 62
     0
370
    -2
100
AcDbLine
 10
21.65131182037537
 20
-4.97673295074576
 30
0.0
 11
21.65131182037537
 21
-5.867747830100795
 31
0.0
  0
LINE
  5
875
330
872
100
AcDbEntity
  8
joints
 62
     0
370
    -2
100
AcDbLine
 10
16.54562681144928
 20
-5.687747830100795
 30
0.0
 11
18.46846931591232
 21
-5.687747830100795
 31
0.0
  0
LINE
  5
876
330
872
100
AcDbEntity
  8
joints
 62
     0
370
    -2
100
AcDbLine
 10
21.47131182037537
 20
-5.687747830100795
 30
0.0
 11
19.54846931591232
 21
-5.687747830100795
 31
0.0
  0
SOLID
  5
877
330
872
100
AcDbEntity
  8
joints
 62
     0
100
AcDbTrace
 10
16.54562681144928
 20
-5.657747830100795
 30
0.0
 11
16.54562681144928
 21
-5.717747830100795
 31
0.0
 12
16.36562681144928
 22
-5.687747830100795
 32
0.0
 13
16.36562681144928
 23
-5.687747830100795
 33
0.0
  0
SOLID
  5
878
330
872
100
AcDbEntity
  8
joints
 62
     0
100
AcDbTrace
 10
21.47131182037537
 20
-5.717747830100795
 30
0.0
 11
21.47131182037537
 21
-5.657747830100795
 31
0.0
 12
21.65131182037537
 22
-5.687747830100795
 32
0.0
 13
21.65131182037537
 23
-5.687747830100795
 33
0.0
  0
MTEXT
  5
879
330
872
100
AcDbEntity
  8
joints
 62
     0
100
AcDbMText
 10
19.00846931591232
 20
-5.687747830100795
 30
0.0
 40
0.18
 41
0.0
 46
0.0
 71
     5
 72
     1
  1
\A1;5.2857
 73
     1
 44
1.0
  0
POINT
  5
87A
330
872
100
AcDbEntity
  8
DEFPOINTS
 62
     0
100
AcDbPoint
 10
16.36562681144928
 20
-4.91423295074576
 30
0.0
  0
POINT
  5
87B
330
872
100
AcDbEntity
  8
DEFPOINTS
 62
     0
100
AcDbPoint
 10
21.65131182037537
 20
-4.91423295074576
 30
0.0
  0
POINT
  5
87C
330
872
100
AcDbEntity
  8
DEFPOINTS
 62
     0
100
AcDbPoint
 10
21.65131182037537
 20
-5.687747830100795
 30
0.0
  0
ENDBLK
  5
87E
330
872
100
AcDbEntity
  8
0
100
AcDbBlockEnd
  0
BLOCK
  5
88D
330
882
100
AcDbEntity
  8
0
100
AcDbBlockBegin
  2
*D10
 70
     1
 10
0.0
 20
0.0
 30
0.0
  3
*D10
  1

  0
LINE
  5
883
330
882
100
AcDbEntity
  8
joints
 62
     0
370
    -2
100
AcDbLine
 10
21.71381182037537
 20
2.666212866933602
 30
0.0
 11
23.05197270186309
 21
2.666212866933602
 31
0.0
  0
LINE
  5
884
330
882
100
AcDbEntity
  8
joints
 62
     0
370
    -2
100
AcDbLine
 10
21.71381182037537
 20
-4.91423295074576
 30
0.0
 11
23.05197270186309
 21
-4.91423295074576
 31
0.0
  0
LINE
  5
885
330
882
100
AcDbEntity
  8
joints
 62
     0
370
    -2
100
AcDbLine
 10
22.87197270186309
 20
2.486212866933602
 30
0.0
 11
22.87197270186309
 21
-0.9440100419060786
 31
0.0
  0
LINE
  5
886
330
882
100
AcDbEntity
  8
joints
 62
     0
370
    -2
100
AcDbLine
 10
22.87197270186309
 20
-4.73423295074576
 30
0.0
 11
22.87197270186309
 21
-1.304010041906079
 31
0.0
  0
SOLID
  5
887
330
882
100
AcDbEntity
  8
joints
 62
     0
100
AcDbTrace
 10
22.90197270186309
 20
2.486212866933602
 30
0.0
 11
22.84197270186309
 21
2.486212866933602
 31
0.0
 12
22.87197270186309
 22
2.666212866933602
 32
0.0
 13
22.87197270186309
 23
2.666212866933602
 33
0.0
  0
SOLID
  5
888
330
882
100
AcDbEntity
  8
joints
 62
     0
100
AcDbTrace
 10
22.84197270186309
 20
-4.73423295074576
 30
0.0
 11
22.90197270186309
 21
-4.73423295074576
 31
0.0
 12
22.87197270186309
 22
-4.91423295074576
 32
0.0
 13
22.87197270186309
 23
-4.91423295074576
 33
0.0
  0
MTEXT
  5
889
330
882
100
AcDbEntity
  8
joints
 62
     0
100
AcDbMText
 10
22.87197270186309
 20
-1.124010041906079
 30
0.0
 40
0.18
 41
0.0
 46
0.0
 71
     5
 72
     1
  1
\A1;7.5804
 73
     1
 44
1.0
  0
POINT
  5
88A
330
882
100
AcDbEntity
  8
DEFPOINTS
 62
     0
100
AcDbPoint
 10
21.65131182037537
 20
2.666212866933602
 30
0.0
  0
POINT
  5
88B
330
882
100
AcDbEntity
  8
DEFPOINTS
 62
     0
100
AcDbPoint
 10
21.65131182037537
 20
-4.91423295074576
 30
0.0
  0
POINT
  5
88C
330
882
100
AcDbEntity
  8
DEFPOINTS
 62
     0
100
AcDbPoint
 10
22.87197270186309
 20
-4.91423295074576
 30
0.0
  0
ENDBLK
  5
88E
330
882
100
AcDbEntity
  8
0
100
AcDbBlockEnd
  0
BLOCK
  5
949
330
93E
100
AcDbEntity
  8
0
100
AcDbBlockBegin
  2
*D11
 70
     1
 10
0.0
 20
0.0
 30
0.0
  3
*D11
  1

  0
LINE
  5
93F
330
93E
100
AcDbEntity
  8
0
 62
     0
370
    -2
100
AcDbLine
 10
24.73266341592984
 20
-2.825405046829609
 30
0.0
 11
24.73266341592984
 21
-4.071411431220415
 31
0.0
  0
LINE
  5
940
330
93E
100
AcDbEntity
  8
0
 62
     0
370
    -2
100
AcDbLine
 10
30.3326446819452
 20
-2.899345538012913
 30
0.0
 11
30.3326446819452
 21
-4.071411431220415
 31
0.0
  0
LINE
  5
941
330
93E
100
AcDbEntity
  8
0
 62
     0
370
    -2
100
AcDbLine
 10
24.91266341592984
 20
-3.891411431220416
 30
0.0
 11
27.03765404893752
 21
-3.891411431220416
 31
0.0
  0
LINE
  5
942
330
93E
100
AcDbEntity
  8
0
 62
     0
370
    -2
100
AcDbLine
 10
30.1526446819452
 20
-3.891411431220416
 30
0.0
 11
28.02765404893752
 21
-3.891411431220416
 31
0.0
  0
SOLID
  5
943
330
93E
100
AcDbEntity
  8
0
 62
     0
100
AcDbTrace
 10
24.91266341592984
 20
-3.861411431220416
 30
0.0
 11
24.91266341592984
 21
-3.921411431220415
 31
0.0
 12
24.73266341592984
 22
-3.891411431220416
 32
0.0
 13
24.73266341592984
 23
-3.891411431220416
 33
0.0
  0
SOLID
  5
944
330
93E
100
AcDbEntity
  8
0
 62
     0
100
AcDbTrace
 10
30.1526446819452
 20
-3.921411431220415
 30
0.0
 11
30.1526446819452
 21
-3.861411431220416
 31
0.0
 12
30.3326446819452
 22
-3.891411431220416
 32
0.0
 13
30.3326446819452
 23
-3.891411431220416
 33
0.0
  0
MTEXT
  5
945
330
93E
100
AcDbEntity
  8
0
 62
     0
100
AcDbMText
 10
27.53265404893752
 20
-3.891411431220416
 30
0.0
 40
0.18
 41
0.0
 46
0.0
 71
     5
 72
     1
  1
\A1;5.6000
 73
     1
 44
1.0
  0
POINT
  5
946
330
93E
100
AcDbEntity
  8
DEFPOINTS
 62
     0
100
AcDbPoint
 10
24.73266341592984
 20
-2.762905046829609
 30
0.0
  0
POINT
  5
947
330
93E
100
AcDbEntity
  8
DEFPOINTS
 62
     0
100
AcDbPoint
 10
30.3326446819452
 20
-2.836845538012913
 30
0.0
  0
POINT
  5
948
330
93E
100
AcDbEntity
  8
DEFPOINTS
 62
     0
100
AcDbPoint
 10
30.3326446819452
 20
-3.891411431220416
 30
0.0
  0
ENDBLK
  5
94A
330
93E
100
AcDbEntity
  8
0
100
AcDbBlockEnd
  0
BLOCK
  5
959
330
94E
100
AcDbEntity
  8
0
100
AcDbBlockBegin
  2
*D12
 70
     1
 10
0.0
 20
0.0
 30
0.0
  3
*D12
  1

  0
LINE
  5
94F
330
94E
100
AcDbEntity
  8
0
 62
     0
370
    -2
100
AcDbLine
 10
24.67016341592984
 20
-2.762905046829609
 30
0.0
 11
23.93362532750843
 21
-2.762905046829609
 31
0.0
  0
LINE
  5
950
330
94E
100
AcDbEntity
  8
0
 62
     0
370
    -2
100
AcDbLine
 10
27.7701446819452
 20
1.163154461987087
 30
0.0
 11
23.93362532750843
 21
1.163154461987087
 31
0.0
  0
LINE
  5
951
330
94E
100
AcDbEntity
  8
0
 62
     0
370
    -2
100
AcDbLine
 10
24.11362532750843
 20
-2.582905046829608
 30
0.0
 11
24.11362532750843
 21
-0.9798752924212601
 31
0.0
  0
LINE
  5
952
330
94E
100
AcDbEntity
  8
0
 62
     0
370
    -2
100
AcDbLine
 10
24.11362532750843
 20
0.9831544619870876
 30
0.0
 11
24.11362532750843
 21
-0.6198752924212605
 31
0.0
  0
SOLID
  5
953
330
94E
100
AcDbEntity
  8
0
 62
     0
100
AcDbTrace
 10
24.08362532750843
 20
-2.582905046829608
 30
0.0
 11
24.14362532750843
 21
-2.582905046829608
 31
0.0
 12
24.11362532750843
 22
-2.762905046829609
 32
0.0
 13
24.11362532750843
 23
-2.762905046829609
 33
0.0
  0
SOLID
  5
954
330
94E
100
AcDbEntity
  8
0
 62
     0
100
AcDbTrace
 10
24.14362532750843
 20
0.9831544619870876
 30
0.0
 11
24.08362532750843
 21
0.9831544619870876
 31
0.0
 12
24.11362532750843
 22
1.163154461987087
 32
0.0
 13
24.11362532750843
 23
1.163154461987087
 33
0.0
  0
MTEXT
  5
955
330
94E
100
AcDbEntity
  8
0
 62
     0
100
AcDbMText
 10
24.11362532750843
 20
-0.7998752924212605
 30
0.0
 40
0.18
 41
0.0
 46
0.0
 71
     5
 72
     1
  1
\A1;3.9261
 73
     1
 44
1.0
  0
POINT
  5
956
330
94E
100
AcDbEntity
  8
DEFPOINTS
 62
     0
100
AcDbPoint
 10
24.73266341592984
 20
-2.762905046829609
 30
0.0
  0
POINT
  5
957
330
94E
100
AcDbEntity
  8
DEFPOINTS
 62
     0
100
AcDbPoint
 10
27.8326446819452
 20
1.163154461987087
 30
0.0
  0
POINT
  5
958
330
94E
100
AcDbEntity
  8
DEFPOINTS
 62
     0
100
AcDbPoint
 10
24.11362532750843
 20
1.163154461987087
 30
0.0
  0
ENDBLK
  5
95A
330
94E
100
AcDbEntity
  8
0
100
AcDbBlockEnd
  0
BLOCK
  5
A79
330
A6E
100
AcDbEntity
  8
0
100
AcDbBlockBegin
  2
*D13
 70
     1
 10
0.0
 20
0.0
 30
0.0
  3
*D13
  1

  0
LINE
  5
A6F
330
A6E
100
AcDbEntity
  8
joints
 62
     0
370
    -2
100
AcDbLine
 10
24.67793066545929
 20
-2.91645157241223
 30
0.0
 11
24.67793066545929
 21
-3.560281994016274
 31
0.0
  0
LINE
  5
A70
330
A6E
100
AcDbEntity
  8
joints
 62
     0
370
    -2
100
AcDbLine
 10
30.36737541170516
 20
-2.91645157241223
 30
0.0
 11
30.36737541170516
 21
-3.560281994016274
 31
0.0
  0
LINE
  5
A71
330
A6E
100
AcDbEntity
  8
joints
 62
     0
370
    -2
100
AcDbLine
 10
24.85793066545929
 20
-3.380281994016274
 30
0.0
 11
26.98265303858222
 21
-3.380281994016274
 31
0.0
  0
LINE
  5
A72
330
A6E
100
AcDbEntity
  8
joints
 62
     0
370
    -2
100
AcDbLine
 10
30.18737541170516
 20
-3.380281994016274
 30
0.0
 11
28.06265303858222
 21
-3.380281994016274
 31
0.0
  0
SOLID
  5
A73
330
A6E
100
AcDbEntity
  8
joints
 62
     0
100
AcDbTrace
 10
24.85793066545929
 20
-3.350281994016274
 30
0.0
 11
24.85793066545929
 21
-3.410281994016274
 31
0.0
 12
24.67793066545929
 22
-3.380281994016274
 32
0.0
 13
24.67793066545929
 23
-3.380281994016274
 33
0.0
  0
SOLID
  5
A74
330
A6E
100
AcDbEntity
  8
joints
 62
     0
100
AcDbTrace
 10
30.18737541170516
 20
-3.410281994016274
 30
0.0
 11
30.18737541170516
 21
-3.350281994016274
 31
0.0
 12
30.36737541170516
 22
-3.380281994016274
 32
0.0
 13
30.36737541170516
 23
-3.380281994016274
 33
0.0
  0
MTEXT
  5
A75
330
A6E
100
AcDbEntity
  8
joints
 62
     0
100
AcDbMText
 10
27.52265303858222
 20
-3.380281994016274
 30
0.0
 40
0.18
 41
0.0
 46
0.0
 71
     5
 72
     1
  1
\A1;5.6894
 73
     1
 44
1.0
  0
POINT
  5
A76
330
A6E
100
AcDbEntity
  8
DEFPOINTS
 62
     0
100
AcDbPoint
 10
24.67793066545929
 20
-2.85395157241223
 30
0.0
  0
POINT
  5
A77
330
A6E
100
AcDbEntity
  8
DEFPOINTS
 62
     0
100
AcDbPoint
 10
30.36737541170516
 20
-2.85395157241223
 30
0.0
  0
POINT
  5
A78
330
A6E
100
AcDbEntity
  8
DEFPOINTS
 62
     0
100
AcDbPoint
 10
30.36737541170516
 20
-3.380281994016274
 30
0.0
  0
ENDBLK
  5
A7A
330
A6E
100
AcDbEntity
  8
0
100
AcDbBlockEnd
  0
BLOCK
  5
A89
330
A7E
100
AcDbEntity
  8
0
100
AcDbBlockBegin
  2
*D14
 70
     1
 10
0.0
 20
0.0
 30
0.0
  3
*D14
  1

  0
LINE
  5
A7F
330
A7E
100
AcDbEntity
  8
joints
 62
     0
370
    -2
100
AcDbLine
 10
24.61543066545929
 20
-2.85395157241223
 30
0.0
 11
23.7191123931739
 21
-2.85395157241223
 31
0.0
  0
LINE
  5
A80
330
A7E
100
AcDbEntity
  8
joints
 62
     0
370
    -2
100
AcDbLine
 10
24.61543066545929
 20
1.208682818189664
 30
0.0
 11
23.7191123931739
 21
1.208682818189664
 31
0.0
  0
LINE
  5
A81
330
A7E
100
AcDbEntity
  8
joints
 62
     0
370
    -2
100
AcDbLine
 10
23.8991123931739
 20
-2.67395157241223
 30
0.0
 11
23.8991123931739
 21
-1.002634377111283
 31
0.0
  0
LINE
  5
A82
330
A7E
100
AcDbEntity
  8
joints
 62
     0
370
    -2
100
AcDbLine
 10
23.8991123931739
 20
1.028682818189665
 30
0.0
 11
23.8991123931739
 21
-0.6426343771112832
 31
0.0
  0
SOLID
  5
A83
330
A7E
100
AcDbEntity
  8
joints
 62
     0
100
AcDbTrace
 10
23.8691123931739
 20
-2.67395157241223
 30
0.0
 11
23.9291123931739
 21
-2.67395157241223
 31
0.0
 12
23.8991123931739
 22
-2.85395157241223
 32
0.0
 13
23.8991123931739
 23
-2.85395157241223
 33
0.0
  0
SOLID
  5
A84
330
A7E
100
AcDbEntity
  8
joints
 62
     0
100
AcDbTrace
 10
23.9291123931739
 20
1.028682818189665
 30
0.0
 11
23.8691123931739
 21
1.028682818189665
 31
0.0
 12
23.8991123931739
 22
1.208682818189664
 32
0.0
 13
23.8991123931739
 23
1.208682818189664
 33
0.0
  0
MTEXT
  5
A85
330
A7E
100
AcDbEntity
  8
joints
 62
     0
100
AcDbMText
 10
23.8991123931739
 20
-0.822634377111283
 30
0.0
 40
0.18
 41
0.0
 46
0.0
 71
     5
 72
     1
  1
\A1;4.0626
 73
     1
 44
1.0
  0
POINT
  5
A86
330
A7E
100
AcDbEntity
  8
DEFPOINTS
 62
     0
100
AcDbPoint
 10
24.67793066545929
 20
-2.85395157241223
 30
0.0
  0
POINT
  5
A87
330
A7E
100
AcDbEntity
  8
DEFPOINTS
 62
     0
100
AcDbPoint
 10
24.67793066545929
 20
1.208682818189664
 30
0.0
  0
POINT
  5
A88
330
A7E
100
AcDbEntity
  8
DEFPOINTS
 62
     0
100
AcDbPoint
 10
23.8991123931739
 20
1.208682818189664
 30
0.0
  0
ENDBLK
  5
A8A
330
A7E
100
AcDbEntity
  8
0
100
AcDbBlockEnd
  0
BLOCK
  5
C47
330
C2A
100
AcDbEntity
  8
0
100
AcDbBlockBegin
  2
O16049
 70
     0
 10
0.0
 20
0.0
 30
0.0
  3
O16049
  1

  0
CIRCLE
  5
C45
330
C2A
100
AcDbEntity
  8
holes_trace
100
AcDbCircle
 10
0.0001581836635647
 20
0.0
 30
0.0
 40
0.0155
  0
LWPOLYLINE
  5
C46
330
C2A
100
AcDbEntity
  8
0
100
AcDbPolyline
 90
       15
 70
     0
 43
0.0
 10
-0.0561865331007572
 20
0.074928868887425
 10
0.0001581836635647
 20
0.1672500800480634
 10
0.0565029004278865
 20
0.074928868887425
 42
0.1622776601683989
 10
0.093987076884765
 20
0.0623814980333517
 10
0.2162174351557833
 20
0.0622270612161699
 10
0.2160792410636101
 20
-0.0471478514804424
 42
-0.4142135623731616
 10
0.2004345115223525
 20
-0.0627530969953654
 10
0.0938291407794263
 20
-0.0626184021913545
 42
0.1622776601683709
 10
0.0563133771014814
 20
-0.0750710113822244
 42
-0.3333333333333441
 10
-0.0561865331007572
 20
-0.0749288688874223
 42
0.1622776601683865
 10
-0.0936707095576357
 20
-0.0623814980333499
 10
-0.2499205848385206
 20
-0.06218407790168
 10
-0.2497626487331819
 20
0.062815822323028
 10
-0.0935127734522934
 20
0.0626184021913634
 42
0.1622776601683579
 10
-0.0559970097743521
 20
0.0750710113822333
  0
ENDBLK
  5
C48
330
C2A
100
AcDbEntity
  8
0
100
AcDbBlockEnd
  0
BLOCK
  5
C6B
330
C4E
100
AcDbEntity
  8
0
100
AcDbBlockBegin
  2
e16049
 70
     0
 10
0.0
 20
0.0
 30
0.0
  3
e16049
  1

  0
CIRCLE
  5
C69
330
C4E
100
AcDbEntity
  8
holes_trace
100
AcDbCircle
 10
0.0
 20
0.0
 30
0.0
 40
0.0155
  0
LWPOLYLINE
  5
C6A
330
C4E
100
AcDbEntity
  8
0
100
AcDbPolyline
 90
       15
 70
     0
 43
0.0
 10
-0.0563447167643218
 20
0.074928868887425
 10
0.0323692471191679
 20
0.2237411863437631
 10
0.0563447167643218
 20
0.074928868887425
 42
0.1622776601683989
 10
0.0938288932212004
 20
0.0623814980333517
 10
0.2160592514922186
 20
0.0622270612161699
 10
0.2159210574000454
 20
-0.0471478514804424
 42
-0.4142135623731616
 10
0.2002763278587878
 20
-0.0627530969953654
 10
0.0936709571158616
 20
-0.0626184021913545
 42
0.1622776601683709
 10
0.0561551934379168
 20
-0.0750710113822244
 42
-0.3333333333333441
 10
-0.0563447167643218
 20
-0.0749288688874223
 42
0.1622776601683865
 10
-0.0938288932212004
 20
-0.0623814980333499
 10
-0.2500787685020853
 20
-0.06218407790168
 10
-0.2499208323967466
 20
0.062815822323028
 10
-0.093670957115858
 20
0.0626184021913634
 42
0.1622776601683579
 10
-0.0561551934379168
 20
0.0750710113822333
  0
ENDBLK
  5
C6C
330
C4E
100
AcDbEntity
  8
0
100
AcDbBlockEnd
  0
BLOCK
  5
CDD
330
CB2
100
AcDbEntity
  8
0
100
AcDbBlockBegin
  2
f16049
 70
     0
 10
0.0
 20
0.0
 30
0.0
  3
f16049
  1

  0
CIRCLE
  5
CCD
330
CB2
100
AcDbEntity
  8
holes_trace
100
AcDbCircle
 10
0.0
 20
0.0
 30
0.0
 40
0.0155
  0
LINE
  5
CCE
330
CB2
100
AcDbEntity
  8
0
100
AcDbLine
 10
-0.0563447167643218
 20
0.074928868887425
 30
0.0
 11
0.0323692471191679
 21
0.2237411863437631
 31
0.0
  0
LINE
  5
CCF
330
CB2
100
AcDbEntity
  8
0
100
AcDbLine
 10
0.0323692471191679
 20
0.2237411863437631
 30
0.0
 11
0.0563447167643218
 21
0.074928868887425
 31
0.0
  0
ARC
  5
CD0
330
CB2
100
AcDbEntity
  8
0
100
AcDbCircle
 10
0.0939078612738689
 20
0.1248814481456986
 30
0.0
 40
0.0624999999999939
100
AcDbArc
 50
233.0577097567417
 51
269.9276074025902
  0
LINE
  5
CD1
330
CB2
100
AcDbEntity
  8
0
100
AcDbLine
 10
0.0938288932212004
 20
0.0623814980333517
 30
0.0
 11
0.2160592514922186
 21
0.0622270612161699
 31
0.0
  0
LINE
  5
CD2
330
CB2
100
AcDbEntity
  8
0
100
AcDbLine
 10
0.2160592514922186
 20
0.0622270612161699
 30
0.0
 11
0.2159013153868776
 21
-0.0627728390085318
 31
0.0
  0
ARC
  5
CD3
330
CB2
100
AcDbEntity
  8
0
100
AcDbCircle
 10
0.0935919890631949
 20
-0.1251183523037094
 30
0.0
 40
0.0625000000000019
100
AcDbArc
 50
89.92760740259197
 51
126.7975050484343
  0
ARC
  5
CD4
330
CB2
100
AcDbEntity
  8
0
100
AcDbCircle
 10
-0.0000000000000013
 20
-0.0000000000000009
 30
0.0
 40
0.0937499999999997
100
AcDbArc
 50
233.0577097567458
 51
306.7975050484363
  0
ARC
  5
CD5
330
CB2
100
AcDbEntity
  8
0
100
AcDbCircle
 10
-0.0939078612738689
 20
-0.1248814481457012
 30
0.0
 40
0.062499999999998
100
AcDbArc
 50
53.05770975674469
 51
89.92760740259034
  0
LINE
  5
CD6
330
CB2
100
AcDbEntity
  8
0
100
AcDbLine
 10
-0.0938288932212004
 20
-0.0623814980333499
 30
0.0
 11
-0.1875788183897305
 21
-0.0622630459543476
 31
0.0
  0
LINE
  5
CD7
330
CB2
100
AcDbEntity
  8
0
100
AcDbLine
 10
-0.2499998004494159
 20
0.0003158722106749
 30
0.0
 11
-0.2499998004494159
 21
0.0003158722106784
 31
0.0
  0
LINE
  5
CD8
330
CB2
100
AcDbEntity
  8
0
100
AcDbLine
 10
-0.1874208822843966
 20
0.0627368542703621
 30
0.0
 11
-0.093670957115858
 21
0.0626184021913634
 31
0.0
  0
ARC
  5
CD9
330
CB2
100
AcDbEntity
  8
0
100
AcDbCircle
 10
-0.0935919890631949
 20
0.1251183523037183
 30
0.0
 40
0.0625000000000014
100
AcDbArc
 50
269.9276074025951
 51
306.7975050484343
  0
LINE
  5
CDA
330
CB2
100
AcDbEntity
  8
0
100
AcDbLine
 10
0.2159013153868776
 20
-0.0627728390085318
 30
0.0
 11
0.0936709571158616
 21
-0.0626184021913545
 31
0.0
  0
ARC
  5
CDB
330
CB2
100
AcDbEntity
  8
0
100
AcDbCircle
 10
-0.1874998503370624
 20
0.000236904158009
 30
0.0
 40
0.0625
100
AcDbArc
 50
89.92760740259277
 51
179.9276074025895
  0
ARC
  5
CDC
330
CB2
100
AcDbEntity
  8
0
100
AcDbCircle
 10
-0.1874998503370624
 20
0.0002369041580055
 30
0.0
 40
0.0625
100
AcDbArc
 50
179.9276074025895
 51
269.9276074025908
  0
ENDBLK
  5
CDE
330
CB2
100
AcDbEntity
  8
0
100
AcDbBlockEnd
  0
BLOCK
  5
D07
330
CE0
100
AcDbEntity
  8
0
100
AcDbBlockBegin
  2
n16049
 70
     0
 10
0.0
 20
0.0
 30
0.0
  3
n16049
  1

  0
LINE
  5
CFB
330
CE0
100
AcDbEntity
  8
0
100
AcDbLine
 10
0.0070655779399607
 20
0.7194470867353768
 30
0.0
 11
0.0065549112030512
 21
0.0698279713608869
 31
0.0
  0
LINE
  5
CFC
330
CE0
100
AcDbEntity
  8
0
100
AcDbLine
 10
-0.0565655972510855
 20
-0.7194962180808675
 30
0.0
 11
-0.0565655972510861
 21
-0.7194962180808675
 31
0.0
  0
LINE
  5
CFD
330
CE0
100
AcDbEntity
  8
0
100
AcDbLine
 10
0.0070655779399607
 20
0.7194470867353768
 30
0.0
 11
-0.1179343834378104
 21
0.71954534942636
 31
0.0
  0
LINE
  5
CFE
330
CE0
100
AcDbEntity
  8
0
100
AcDbLine
 10
-0.1190164465944783
 20
-0.6569471060464922
 30
0.0
 11
-0.1185549112030602
 21
-0.0698279713608994
 31
0.0
  0
CIRCLE
  5
CFF
330
CE0
100
AcDbEntity
  8
0
100
AcDbCircle
 10
-0.056
 20
0.0
 30
0.0
 40
0.056
  0
ARC
  5
D00
330
CE0
100
AcDbEntity
  8
0
100
AcDbCircle
 10
-0.056
 20
-0.0000000000000071
 30
0.0
 40
0.09375
100
AcDbArc
 50
311.7652745913235
 51
48.14464479976824
  0
LINE
  5
D01
330
CE0
100
AcDbEntity
  8
0
100
AcDbLine
 10
0.0064450501747109
 20
-0.0699262340518843
 30
0.0
 11
0.0059835147832912
 21
-0.6570453687374753
 31
0.0
  0
LINE
  5
D02
330
CE0
100
AcDbEntity
  8
0
100
AcDbLine
 10
-0.1184450501747198
 20
0.0699262340518683
 30
0.0
 11
-0.1179343834378104
 21
0.71954534942636
 31
0.0
  0
ARC
  5
D03
330
CE0
100
AcDbEntity
  8
0
100
AcDbCircle
 10
-0.056
 20
-0.0000000000000071
 30
0.0
 40
0.09375
100
AcDbArc
 50
131.765274591325
 51
228.1446447997663
  0
CIRCLE
  5
D04
330
CE0
100
AcDbEntity
  8
backplate
100
AcDbCircle
 10
-0.056
 20
0.0
 30
0.0
 40
0.0625
  0
ARC
  5
D05
330
CE0
100
AcDbEntity
  8
0
100
AcDbCircle
 10
-0.0565164659055941
 20
-0.6569962373919838
 30
0.0
 40
0.0625
100
AcDbArc
 50
179.9549596955457
 51
269.9549596955453
  0
ARC
  5
D06
330
CE0
100
AcDbEntity
  8
0
100
AcDbCircle
 10
-0.056516465905593
 20
-0.6569962373919838
 30
0.0
 40
0.0625
100
AcDbArc
 50
269.9549596955449
 51
359.9549596955457
  0
ENDBLK
  5
D08
330
CE0
100
AcDbEntity
  8
0
100
AcDbBlockEnd
  0
BLOCK
  5
D3F
330
D19
100
AcDbEntity
  8
0
100
AcDbBlockBegin
  2
S16049
 70
     0
 10
0.0
 20
0.0
 30
0.0
  3
S16049
  1

  0
LINE
  5
D34
330
D19
100
AcDbEntity
  8
0
100
AcDbLine
 10
0.0630655779399607
 20
0.7194470867353839
 30
0.0
 11
0.0625549112030512
 21
0.069827971360894
 31
0.0
  0
LINE
  5
D35
330
D19
100
AcDbEntity
  8
0
100
AcDbLine
 10
-0.0005655972510854
 20
-0.7194962180808604
 30
0.0
 11
-0.0005655972510858
 21
-0.7194962180808604
 31
0.0
  0
LINE
  5
D36
330
D19
100
AcDbEntity
  8
0
100
AcDbLine
 10
0.0630655779399607
 20
0.7194470867353839
 30
0.0
 11
-0.0619343834378103
 21
0.719545349426367
 31
0.0
  0
LINE
  5
D37
330
D19
100
AcDbEntity
  8
0
100
AcDbLine
 10
-0.063016446594478
 20
-0.6569471060464851
 30
0.0
 11
-0.0625549112030601
 21
-0.0698279713608922
 31
0.0
  0
ARC
  5
D38
330
D19
100
AcDbEntity
  8
0
100
AcDbCircle
 10
0.0
 20
0.0
 30
0.0
 40
0.09375
100
AcDbArc
 50
311.7652745913234
 51
48.14464479976824
  0
LINE
  5
D39
330
D19
100
AcDbEntity
  8
0
100
AcDbLine
 10
0.0624450501747109
 20
-0.0699262340518771
 30
0.0
 11
0.0619835147832912
 21
-0.6570453687374682
 31
0.0
  0
LINE
  5
D3A
330
D19
100
AcDbEntity
  8
0
100
AcDbLine
 10
-0.0624450501747198
 20
0.0699262340518754
 30
0.0
 11
-0.0619343834378103
 21
0.719545349426367
 31
0.0
  0
ARC
  5
D3B
330
D19
100
AcDbEntity
  8
0
100
AcDbCircle
 10
0.0
 20
0.0
 30
0.0
 40
0.09375
100
AcDbArc
 50
131.765274591325
 51
228.1446447997663
  0
ARC
  5
D3C
330
D19
100
AcDbEntity
  8
0
100
AcDbCircle
 10
-0.0005164659055943
 20
-0.6569962373919767
 30
0.0
 40
0.0625
100
AcDbArc
 50
179.9549596955457
 51
269.9549596955453
  0
ARC
  5
D3D
330
D19
100
AcDbEntity
  8
0
100
AcDbCircle
 10
-0.000516465905593
 20
-0.6569962373919767
 30
0.0
 40
0.0625
100
AcDbArc
 50
269.9549596955449
 51
359.9549596955457
  0
CIRCLE
  5
D3E
330
D19
100
AcDbEntity
  8
holes_trace
100
AcDbCircle
 10
0.0
 20
0.0
 30
0.0
 40
0.03125
  0
ENDBLK
  5
D40
330
D19
100
AcDbEntity
  8
0
100
AcDbBlockEnd
  0
BLOCK
  5
D6D
330
D42
100
AcDbEntity
  8
0
100
AcDbBlockBegin
  2
Y16049
 70
     0
 10
0.0
 20
0.0
 30
0.0
  3
Y16049
  1

  0
CIRCLE
  5
D5D
330
D42
100
AcDbEntity
  8
holes_trace
100
AcDbCircle
 10
0.0
 20
0.0
 30
0.0
 40
0.0155
  0
LINE
  5
D5E
330
D42
100
AcDbEntity
  8
0
100
AcDbLine
 10
-0.0563447167643218
 20
0.074928868887425
 30
0.0
 11
0.0323692471191679
 21
0.2237411863437631
 31
0.0
  0
LINE
  5
D5F
330
D42
100
AcDbEntity
  8
0
100
AcDbLine
 10
0.0323692471191679
 20
0.2237411863437631
 30
0.0
 11
0.0563447167643218
 21
0.074928868887425
 31
0.0
  0
ARC
  5
D60
330
D42
100
AcDbEntity
  8
0
100
AcDbCircle
 10
0.0939078612738689
 20
0.1248814481456986
 30
0.0
 40
0.0624999999999939
100
AcDbArc
 50
233.0577097567417
 51
269.9276074025902
  0
LINE
  5
D61
330
D42
100
AcDbEntity
  8
0
100
AcDbLine
 10
0.2160754627719106
 20
0.0750576191158725
 30
0.0
 11
0.2159013153868776
 21
-0.0627728390085318
 31
0.0
  0
ARC
  5
D62
330
D42
100
AcDbEntity
  8
0
100
AcDbCircle
 10
0.0935919890631949
 20
-0.1251183523037094
 30
0.0
 40
0.0625000000000019
100
AcDbArc
 50
89.92760740259197
 51
126.7975050484343
  0
ARC
  5
D63
330
D42
100
AcDbEntity
  8
0
100
AcDbCircle
 10
-0.0000000000000013
 20
-0.0000000000000009
 30
0.0
 40
0.0937499999999997
100
AcDbArc
 50
233.0577097567458
 51
306.7975050484363
  0
ARC
  5
D64
330
D42
100
AcDbEntity
  8
0
100
AcDbCircle
 10
-0.0939078612738689
 20
-0.1248814481457012
 30
0.0
 40
0.062499999999998
100
AcDbArc
 50
53.05770975674469
 51
89.92760740259034
  0
LINE
  5
D65
330
D42
100
AcDbEntity
  8
0
100
AcDbLine
 10
-0.0938288932212004
 20
-0.0623814980333499
 30
0.0
 11
-0.1875788183897305
 21
-0.0622630459543476
 31
0.0
  0
LINE
  5
D66
330
D42
100
AcDbEntity
  8
0
100
AcDbLine
 10
-0.2499998004494159
 20
0.0003158722106749
 30
0.0
 11
-0.2499998004494159
 21
0.0003158722106784
 31
0.0
  0
LINE
  5
D67
330
D42
100
AcDbEntity
  8
0
100
AcDbLine
 10
-0.1874208822843966
 20
0.0627368542703621
 30
0.0
 11
-0.093670957115858
 21
0.0626184021913634
 31
0.0
  0
ARC
  5
D68
330
D42
100
AcDbEntity
  8
0
100
AcDbCircle
 10
-0.0935919890631949
 20
0.1251183523037183
 30
0.0
 40
0.0625000000000014
100
AcDbArc
 50
269.9276074025951
 51
306.7975050484343
  0
LINE
  5
D69
330
D42
100
AcDbEntity
  8
0
100
AcDbLine
 10
0.2159013153868776
 20
-0.0627728390085318
 30
0.0
 11
0.0936709571158616
 21
-0.0626184021913545
 31
0.0
  0
ARC
  5
D6A
330
D42
100
AcDbEntity
  8
0
100
AcDbCircle
 10
-0.1874998503370624
 20
0.000236904158009
 30
0.0
 40
0.0625
100
AcDbArc
 50
89.92760740259277
 51
179.9276074025895
  0
ARC
  5
D6B
330
D42
100
AcDbEntity
  8
0
100
AcDbCircle
 10
-0.1874998503370624
 20
0.0002369041580055
 30
0.0
 40
0.0625
100
AcDbArc
 50
179.9276074025895
 51
269.9276074025908
  0
LINE
  5
D6C
330
D42
100
AcDbEntity
  8
0
100
AcDbLine
 10
0.0938288932212004
 20
0.0623814980333517
 30
0.0
 11
0.2160754627719106
 21
0.0750576191158725
 31
0.0
  0
ENDBLK
  5
D6E
330
D42
100
AcDbEntity
  8
0
100
AcDbBlockEnd
  0
BLOCK
  5
DA1
330
D76
100
AcDbEntity
  8
0
100
AcDbBlockBegin
  2
Z16049
 70
     0
 10
0.0
 20
0.0
 30
0.0
  3
Z16049
  1

  0
CIRCLE
  5
D91
330
D76
100
AcDbEntity
  8
holes_trace
100
AcDbCircle
 10
0.0
 20
0.0
 30
0.0
 40
0.0155
  0
LINE
  5
D92
330
D76
100
AcDbEntity
  8
0
100
AcDbLine
 10
-0.0563447167643218
 20
0.074928868887425
 30
0.0
 11
0.0323692471191679
 21
0.2237411863437631
 31
0.0
  0
LINE
  5
D93
330
D76
100
AcDbEntity
  8
0
100
AcDbLine
 10
0.2160754627719106
 20
0.0750576191158725
 30
0.0
 11
0.2159013153868776
 21
-0.0627728390085318
 31
0.0
  0
ARC
  5
D94
330
D76
100
AcDbEntity
  8
0
100
AcDbCircle
 10
0.0935919890631949
 20
-0.1251183523037094
 30
0.0
 40
0.0625000000000019
100
AcDbArc
 50
89.92760740259197
 51
126.7975050484343
  0
ARC
  5
D95
330
D76
100
AcDbEntity
  8
0
100
AcDbCircle
 10
-0.0000000000000013
 20
-0.0000000000000009
 30
0.0
 40
0.0937499999999997
100
AcDbArc
 50
233.0577097567458
 51
306.7975050484363
  0
ARC
  5
D96
330
D76
100
AcDbEntity
  8
0
100
AcDbCircle
 10
-0.0939078612738689
 20
-0.1248814481457012
 30
0.0
 40
0.062499999999998
100
AcDbArc
 50
53.05770975674469
 51
89.92760740259034
  0
LINE
  5
D97
330
D76
100
AcDbEntity
  8
0
100
AcDbLine
 10
-0.0938288932212004
 20
-0.0623814980333499
 30
0.0
 11
-0.1875788183897305
 21
-0.0622630459543476
 31
0.0
  0
LINE
  5
D98
330
D76
100
AcDbEntity
  8
0
100
AcDbLine
 10
-0.2499998004494159
 20
0.0003158722106749
 30
0.0
 11
-0.2499998004494159
 21
0.0003158722106784
 31
0.0
  0
LINE
  5
D99
330
D76
100
AcDbEntity
  8
0
100
AcDbLine
 10
-0.1874208822843966
 20
0.0627368542703621
 30
0.0
 11
-0.093670957115858
 21
0.0626184021913634
 31
0.0
  0
ARC
  5
D9A
330
D76
100
AcDbEntity
  8
0
100
AcDbCircle
 10
-0.0935919890631949
 20
0.1251183523037183
 30
0.0
 40
0.0625000000000014
100
AcDbArc
 50
269.9276074025951
 51
306.7975050484343
  0
LINE
  5
D9B
330
D76
100
AcDbEntity
  8
0
100
AcDbLine
 10
0.2159013153868776
 20
-0.0627728390085318
 30
0.0
 11
0.0936709571158616
 21
-0.0626184021913545
 31
0.0
  0
ARC
  5
D9C
330
D76
100
AcDbEntity
  8
0
100
AcDbCircle
 10
-0.1874998503370624
 20
0.000236904158009
 30
0.0
 40
0.0625
100
AcDbArc
 50
89.92760740259277
 51
179.9276074025895
  0
ARC
  5
D9D
330
D76
100
AcDbEntity
  8
0
100
AcDbCircle
 10
-0.1874998503370624
 20
0.0002369041580055
 30
0.0
 40
0.0625
100
AcDbArc
 50
179.9276074025895
 51
269.9276074025908
  0
LINE
  5
D9E
330
D76
100
AcDbEntity
  8
0
100
AcDbLine
 10
0.1030352375398116
 20
0.0630710248573454
 30
0.0
 11
0.2160754627719106
 21
0.0750576191158725
 31
0.0
  0
LINE
  5
D9F
330
D76
100
AcDbEntity
  8
0
100
AcDbLine
 10
0.0323692471191679
 20
0.2237411863437631
 30
0.0
 11
0.0339527023743407
 21
0.1242282046644556
 31
0.0
  0
ARC
  5
DA0
330
D76
100
AcDbEntity
  8
0
100
AcDbCircle
 10
0.0964447915876496
 20
0.1252225817336745
 30
0.0
 40
0.0625
100
AcDbArc
 50
180.9116162111719
 51
276.0529285374317
  0
ENDBLK
  5
DA2
330
D76
100
AcDbEntity
  8
0
100
AcDbBlockEnd
  0
BLOCK
  5
DC0
330
DA4
100
AcDbEntity
  8
0
100
AcDbBlockBegin
  2
q16049
 70
     0
 10
0.0
 20
0.0
 30
0.0
  3
q16049
  1

  0
CIRCLE
  5
DBF
330
DA4
100
AcDbEntity
  8
holes_trace
100
AcDbCircle
 10
0.0
 20
0.0
 30
0.0
 40
0.03125
  0
ENDBLK
  5
DC1
330
DA4
100
AcDbEntity
  8
0
100
AcDbBlockEnd
  0
BLOCK
  5
E11
330
DF0
100
AcDbEntity
  8
0
100
AcDbBlockBegin
  2
L16049
 70
     0
 10
0.0
 20
0.0
 30
0.0
  3
L16049
  1

  0
CIRCLE
  5
E0B
330
DF0
100
AcDbEntity
  8
joints
100
AcDbCircle
 10
0.0
 20
0.0
 30
0.0
 40
0.03125
  0
CIRCLE
  5
E0C
330
DF0
100
AcDbEntity
  8
joints
100
AcDbCircle
 10
1.57810078770661
 20
-0.4462335759943166
 30
0.0
 40
0.03125
  0
CIRCLE
  5
E0D
330
DF0
100
AcDbEntity
  8
joints
100
AcDbCircle
 10
1.40767170172319
 20
0.6083249342228045
 30
0.0
 40
0.03125
  0
CIRCLE
  5
E0E
330
DF0
100
AcDbEntity
  8
joints
100
AcDbCircle
 10
1.787878411482644
 20
0.6939714528877481
 30
0.0
 40
0.03125
  0
CIRCLE
  5
E0F
330
DF0
100
AcDbEntity
  8
joints
100
AcDbCircle
 10
1.512952658026199
 20
1.146968123487889
 30
0.0
 40
0.03125
  0
CIRCLE
  5
E10
330
DF0
100
AcDbEntity
  8
joints
100
AcDbCircle
 10
1.64060078770661
 20
0.3350164240056808
 30
0.0
 40
0.03125
  0
ENDBLK
  5
E12
330
DF0
100
AcDbEntity
  8
0
100
AcDbBlockEnd
  0
BLOCK
  5
E3E
330
E19
100
AcDbEntity
  8
0
100
AcDbBlockBegin
  2
d16049
 70
     0
 10
0.0
 20
0.0
 30
0.0
  3
d16049
  1

  0
ARC
  5
E34
330
E19
100
AcDbEntity
  8
0
100
AcDbCircle
 10
0.0
 20
0.0
 30
0.0
 40
0.75
100
AcDbArc
 50
207.6255493957937
 51
180.0
  0
LINE
  5
E35
330
E19
100
AcDbEntity
  8
0
100
AcDbLine
 10
-1.85596002981171
 20
-0.3477683744252946
 30
0.0
 11
-0.6644976732461796
 21
-0.3477683744252946
 31
0.0
  0
LINE
  5
E36
330
E19
100
AcDbEntity
  8
0
100
AcDbLine
 10
-1.85596002981171
 20
-0.3477683744252946
 30
0.0
 11
-1.85596002981171
 21
1.045935392737197
 31
0.0
  0
LINE
  5
E37
330
E19
100
AcDbEntity
  8
0
100
AcDbLine
 10
-1.79346002981171
 20
1.108435392737197
 30
0.0
 11
-1.76846002981171
 21
1.108435392737197
 31
0.0
  0
LINE
  5
E38
330
E19
100
AcDbEntity
  8
0
100
AcDbLine
 10
-0.75
 20
0.0
 30
0.0
 11
-1.70596002981171
 21
0.0
 31
0.0
  0
LINE
  5
E39
330
E19
100
AcDbEntity
  8
0
100
AcDbLine
 10
-1.70596002981171
 20
1.045935392737197
 30
0.0
 11
-1.70596002981171
 21
0.0
 31
0.0
  0
CIRCLE
  5
E3A
330
E19
100
AcDbEntity
  8
holes_trace
100
AcDbCircle
 10
0.482464343214821
 20
-0.3471758604433708
 30
0.0
 40
0.03125
  0
CIRCLE
  5
E3B
330
E19
100
AcDbEntity
  8
holes_trace
100
AcDbCircle
 10
0.0
 20
0.0
 30
0.0
 40
0.03125
  0
ARC
  5
E3C
330
E19
100
AcDbEntity
  8
0
100
AcDbCircle
 10
-1.76846002981171
 20
1.045935392737197
 30
0.0
 40
0.0625
100
AcDbArc
 50
0.0
 51
90.0
  0
ARC
  5
E3D
330
E19
100
AcDbEntity
  8
0
100
AcDbCircle
 10
-1.79346002981171
 20
1.045935392737197
 30
0.0
 40
0.0625
100
AcDbArc
 50
90.0
 51
180.0
  0
ENDBLK
  5
E3F
330
E19
100
AcDbEntity
  8
0
100
AcDbBlockEnd
  0
BLOCK
  5
E63
330
E41
100
AcDbEntity
  8
0
100
AcDbBlockBegin
  2
b16049
 70
     0
 10
0.0
 20
0.0
 30
0.0
  3
b16049
  1

  0
ARC
  5
E5C
330
E41
100
AcDbEntity
  8
0
100
AcDbCircle
 10
0.0
 20
0.0
 30
0.0
 40
0.5287631115861057
100
AcDbArc
 50
180.0
 51
83.93216194371506
  0
LINE
  5
E5D
330
E41
100
AcDbEntity
  8
0
100
AcDbLine
 10
0.0
 20
0.5879505226823794
 30
0.0
 11
0.0
 21
0.625
 31
0.0
  0
LINE
  5
E5E
330
E41
100
AcDbEntity
  8
0
100
AcDbLine
 10
-0.5287631115861
 20
0.0
 30
0.0
 11
-0.625
 21
0.0
 31
0.0
  0
ARC
  5
E5F
330
E41
100
AcDbEntity
  8
0
100
AcDbCircle
 10
0.0
 20
0.0
 30
0.0
 40
0.625
100
AcDbArc
 50
90.0
 51
180.0
  0
ARC
  5
E60
330
E41
100
AcDbEntity
  8
0
100
AcDbCircle
 10
0.0625
 20
0.5879505226823794
 30
0.0
 40
0.0625
100
AcDbArc
 50
180.0
 51
263.9321619437159
  0
CIRCLE
  5
E61
330
E41
100
AcDbEntity
  8
holes_trace
100
AcDbCircle
 10
0.0
 20
0.0
 30
0.0
 40
0.03125
  0
CIRCLE
  5
E62
330
E41
100
AcDbEntity
  8
holes_trace
100
AcDbCircle
 10
0.4374043082151591
 20
-0.009149926492559
 30
0.0
 40
0.03125
  0
ENDBLK
  5
E64
330
E41
100
AcDbEntity
  8
0
100
AcDbBlockEnd
  0
BLOCK
  5
E95
330
E66
100
AcDbEntity
  8
0
100
AcDbBlockBegin
  2
M16049
 70
     0
 10
0.0
 20
0.0
 30
0.0
  3
M16049
  1

  0
INSERT
  5
E81
330
E66
100
AcDbEntity
  8
0
100
AcDbBlockReference
  2
Z16049
 10
0.0
 20
0.0
 30
0.0
 41
0.9999999999999999
 42
0.9999999999999999
 50
24.52759896241545
  0
ENDBLK
  5
E96
330
E66
100
AcDbEntity
  8
0
100
AcDbBlockEnd
  0
BLOCK
  5
EC3
330
E98
100
AcDbEntity
  8
0
100
AcDbBlockBegin
  2
a16049
 70
     0
 10
0.0
 20
0.0
 30
0.0
  3
a16049
  1

  0
INSERT
  5
EB3
330
E98
100
AcDbEntity
  8
0
100
AcDbBlockReference
  2
S16049
 10
0.0
 20
0.0
 30
0.0
 41
0.9999999999999998
 42
0.9999999999999998
 50
20.8530593148903
  0
CIRCLE
  5
EC2
330
E98
100
AcDbEntity
  8
holes_trace
100
AcDbCircle
 10
0.0
 20
0.0
 30
0.0
 40
0.03125
  0
ENDBLK
  5
EC4
330
E98
100
AcDbEntity
  8
0
100
AcDbBlockEnd
  0
BLOCK
  5
EFF
330
ED7
100
AcDbEntity
  8
0
100
AcDbBlockBegin
  2
X16049
 70
     0
 10
0.0
 20
0.0
 30
0.0
  3
X16049
  1

  0
LINE
  5
EF2
330
ED7
100
AcDbEntity
  8
0
100
AcDbLine
 10
-1.952906442367029
 20
-0.078318449559541
 30
0.0
 11
-1.952906442367029
 21
1.467616943177656
 31
0.0
  0
LINE
  5
EF3
330
ED7
100
AcDbEntity
  8
0
100
AcDbLine
 10
-1.890406442367029
 20
1.530116943177656
 30
0.0
 11
-1.865406442367029
 21
1.530116943177656
 31
0.0
  0
LINE
  5
EF4
330
ED7
100
AcDbEntity
  8
0
100
AcDbLine
 10
-1.802906442367029
 20
1.467616943177656
 30
0.0
 11
-1.802906442367029
 21
0.171681550440459
 31
0.0
  0
CIRCLE
  5
EF5
330
ED7
100
AcDbEntity
  8
holes_trace
100
AcDbCircle
 10
0.3855179306595022
 20
0.0745056899970891
 30
0.0
 40
0.03125
  0
CIRCLE
  5
EF6
330
ED7
100
AcDbEntity
  8
holes_trace
100
AcDbCircle
 10
-0.0969464125553188
 20
0.421681550440459
 30
0.0
 40
0.03125
  0
ARC
  5
EF7
330
ED7
100
AcDbEntity
  8
0
100
AcDbCircle
 10
-1.865406442367029
 20
1.467616943177656
 30
0.0
 40
0.0625
100
AcDbArc
 50
0.0
 51
90.0
  0
ARC
  5
EF8
330
ED7
100
AcDbEntity
  8
0
100
AcDbCircle
 10
-1.890406442367029
 20
1.467616943177656
 30
0.0
 40
0.0625
100
AcDbArc
 50
90.0
 51
180.0
  0
LINE
  5
EF9
330
ED7
100
AcDbEntity
  8
0
100
AcDbLine
 10
-0.0969464125553188
 20
-0.328318449559541
 30
0.0
 11
-1.702906442367029
 21
-0.328318449559541
 31
0.0
  0
ARC
  5
EFA
330
ED7
100
AcDbEntity
  8
0
100
AcDbCircle
 10
-0.0969464125553188
 20
0.421681550440459
 30
0.0
 40
0.75
100
AcDbArc
 50
270.0
 51
212.5789703928042
  0
LINE
  5
EFB
330
ED7
100
AcDbEntity
  8
0
100
AcDbLine
 10
-1.552906442367029
 20
-0.078318449559541
 30
0.0
 11
-0.7815996094367765
 21
-0.078318449559541
 31
0.0
  0
ARC
  5
EFC
330
ED7
100
AcDbEntity
  8
0
100
AcDbCircle
 10
-1.552906442367029
 20
0.171681550440459
 30
0.0
 40
0.2500000000000001
100
AcDbArc
 50
180.0
 51
270.0
  0
ARC
  5
EFD
330
ED7
100
AcDbEntity
  8
0
100
AcDbCircle
 10
-1.702906442367029
 20
-0.078318449559541
 30
0.0
 40
0.2500000000000001
100
AcDbArc
 50
180.0
 51
270.0
  0
ARC
  5
EFE
330
ED7
100
AcDbEntity
  8
0
100
AcDbCircle
 10
-0.7815996094367765
 20
-0.015818449559541
 30
0.0
 40
0.0625
100
AcDbArc
 50
270.0
 51
32.57897039280289
  0
ENDBLK
  5
F00
330
ED7
100
AcDbEntity
  8
0
100
AcDbBlockEnd
  0
BLOCK
  5
F78
330
F4C
100
AcDbEntity
  8
0
100
AcDbBlockBegin
  2
H16049
 70
     0
 10
0.0
 20
0.0
 30
0.0
  3
H16049
  1

  0
CIRCLE
  5
F67
330
F4C
100
AcDbEntity
  8
holes_trace
100
AcDbCircle
 10
0.2153962885093001
 20
0.2474191519404112
 30
0.0
 40
0.0155
  0
LINE
  5
F68
330
F4C
100
AcDbEntity
  8
0
100
AcDbLine
 10
0.1322370068986096
 20
0.2041340923702268
 30
0.0
 11
0.0
 21
0.3160655321945409
 31
0.0
  0
LINE
  5
F69
330
F4C
100
AcDbEntity
  8
0
100
AcDbLine
 10
0.1768141677390869
 20
0.4728823900886994
 30
0.0
 11
0.3127475772001365
 21
0.4500926181198999
 31
0.0
  0
ARC
  5
F6A
330
F4C
100
AcDbEntity
  8
0
100
AcDbCircle
 10
0.3541769491616265
 20
0.3192104517538574
 30
0.0
 40
0.0625000000000019
100
AcDbArc
 50
170.4826487296659
 51
207.3525463755089
  0
ARC
  5
F6B
330
F4C
100
AcDbEntity
  8
0
100
AcDbCircle
 10
0.2153962885093001
 20
0.2474191519404094
 30
0.0
 40
0.0937499999999997
100
AcDbArc
 50
313.6127510838201
 51
27.35254637551064
  0
ARC
  5
F6C
330
F4C
100
AcDbEntity
  8
0
100
AcDbCircle
 10
0.3231745213128541
 20
0.134291281661941
 30
0.0
 40
0.062499999999998
100
AcDbArc
 50
133.6127510838193
 51
170.4826487296654
  0
LINE
  5
F6D
330
F4C
100
AcDbEntity
  8
0
100
AcDbLine
 10
0.2615347979488867
 20
0.1446254242781961
 30
0.0
 11
0.2460335840245023
 21
0.0521658392322397
 31
0.0
  0
LINE
  5
F6E
330
F4C
100
AcDbEntity
  8
0
100
AcDbLine
 10
0.1740597180442744
 20
0.0008602584845256
 30
0.0
 11
0.1740597180442709
 21
0.0008602584845256
 31
0.0
  0
LINE
  5
F6F
330
F4C
100
AcDbEntity
  8
0
100
AcDbLine
 10
0.1227541372965568
 20
0.0728341244647499
 30
0.0
 11
0.1382553512209377
 21
0.1652937095107152
 31
0.0
  0
ARC
  5
F70
330
F4C
100
AcDbEntity
  8
0
100
AcDbCircle
 10
0.076615627856965
 20
0.1756278521269667
 30
0.0
 40
0.0625000000000014
100
AcDbArc
 50
350.4826487296692
 51
27.35254637550893
  0
LINE
  5
F71
330
F4C
100
AcDbEntity
  8
0
100
AcDbLine
 10
0.3127475772001365
 20
0.4500926181198999
 30
0.0
 11
0.2925372257976537
 21
0.3295445943701125
 31
0.0
  0
ARC
  5
F72
330
F4C
100
AcDbEntity
  8
0
100
AcDbCircle
 10
0.1843938606605278
 20
0.0624999818484966
 30
0.0
 40
0.0625
100
AcDbArc
 50
170.4826487296673
 51
260.482648729664
  0
ARC
  5
F73
330
F4C
100
AcDbEntity
  8
0
100
AcDbCircle
 10
0.1843938606605313
 20
0.0624999818484966
 30
0.0
 40
0.0625
100
AcDbArc
 50
260.482648729664
 51
350.482648729664
  0
LINE
  5
F74
330
F4C
100
AcDbEntity
  8
0
100
AcDbLine
 10
0.1700883612619393
 20
0.3594075713416558
 30
0.0
 11
0.1768141677390869
 21
0.4728823900886994
 31
0.0
  0
ARC
  5
F75
330
F4C
100
AcDbEntity
  8
0
100
AcDbCircle
 10
0.1076978570241138
 20
0.3631055411833231
 30
0.0
 40
0.0625
100
AcDbArc
 50
261.4666575382462
 51
356.6079698645064
  0
LINE
  5
F76
330
F4C
100
AcDbEntity
  8
0
100
AcDbLine
 10
0.0
 20
0.3160655321945409
 30
0.0
 11
0.0
 21
0.3435273653001474
 31
0.0
  0
LINE
  5
F77
330
F4C
100
AcDbEntity
  8
0
100
AcDbLine
 10
0.0
 20
0.3435273653001474
 30
0.0
 11
0.0984237989149879
 21
0.3012974361631198
 31
0.0
  0
ENDBLK
  5
F79
330
F4C
100
AcDbEntity
  8
0
100
AcDbBlockEnd
  0
BLOCK
  5
FA7
330
F7B
100
AcDbEntity
  8
0
100
AcDbBlockBegin
  2
R16049
 70
     0
 10
0.0
 20
0.0
 30
0.0
  3
R16049
  1

  0
CIRCLE
  5
F96
330
F7B
100
AcDbEntity
  8
holes_trace
100
AcDbCircle
 10
0.2153962885093001
 20
0.2474191519404112
 30
0.0
 40
0.0155
  0
LINE
  5
F97
330
F7B
100
AcDbEntity
  8
0
100
AcDbLine
 10
0.1322370068986096
 20
0.2041340923702268
 30
0.0
 11
0.0
 21
0.3160655321945409
 31
0.0
  0
LINE
  5
F98
330
F7B
100
AcDbEntity
  8
0
100
AcDbLine
 10
0.1768141677390869
 20
0.4728823900886994
 30
0.0
 11
0.3127475772001365
 21
0.4500926181198999
 31
0.0
  0
ARC
  5
F99
330
F7B
100
AcDbEntity
  8
0
100
AcDbCircle
 10
0.3541769491616265
 20
0.3192104517538574
 30
0.0
 40
0.0625000000000019
100
AcDbArc
 50
170.4826487296659
 51
207.3525463755089
  0
ARC
  5
F9A
330
F7B
100
AcDbEntity
  8
0
100
AcDbCircle
 10
0.2153962885093001
 20
0.2474191519404094
 30
0.0
 40
0.0937499999999997
100
AcDbArc
 50
313.6127510838201
 51
27.35254637551064
  0
ARC
  5
F9B
330
F7B
100
AcDbEntity
  8
0
100
AcDbCircle
 10
0.3231745213128541
 20
0.134291281661941
 30
0.0
 40
0.062499999999998
100
AcDbArc
 50
133.6127510838193
 51
170.4826487296654
  0
LINE
  5
F9C
330
F7B
100
AcDbEntity
  8
0
100
AcDbLine
 10
0.2615347979488867
 20
0.1446254242781961
 30
0.0
 11
0.2460335840245023
 21
0.0521658392322397
 31
0.0
  0
LINE
  5
F9D
330
F7B
100
AcDbEntity
  8
0
100
AcDbLine
 10
0.1740597180442744
 20
0.0008602584845256
 30
0.0
 11
0.1740597180442709
 21
0.0008602584845256
 31
0.0
  0
LINE
  5
F9E
330
F7B
100
AcDbEntity
  8
0
100
AcDbLine
 10
0.1227541372965568
 20
0.0728341244647499
 30
0.0
 11
0.1382553512209377
 21
0.1652937095107152
 31
0.0
  0
ARC
  5
F9F
330
F7B
100
AcDbEntity
  8
0
100
AcDbCircle
 10
0.076615627856965
 20
0.1756278521269667
 30
0.0
 40
0.0625000000000014
100
AcDbArc
 50
350.4826487296692
 51
27.35254637550893
  0
LINE
  5
FA0
330
F7B
100
AcDbEntity
  8
0
100
AcDbLine
 10
0.3127475772001365
 20
0.4500926181198999
 30
0.0
 11
0.2925372257976537
 21
0.3295445943701125
 31
0.0
  0
ARC
  5
FA1
330
F7B
100
AcDbEntity
  8
0
100
AcDbCircle
 10
0.1843938606605278
 20
0.0624999818484966
 30
0.0
 40
0.0625
100
AcDbArc
 50
170.4826487296673
 51
260.482648729664
  0
ARC
  5
FA2
330
F7B
100
AcDbEntity
  8
0
100
AcDbCircle
 10
0.1843938606605313
 20
0.0624999818484966
 30
0.0
 40
0.0625
100
AcDbArc
 50
260.482648729664
 51
350.482648729664
  0
LINE
  5
FA3
330
F7B
100
AcDbEntity
  8
0
100
AcDbLine
 10
0.1700883612619393
 20
0.3594075713416558
 30
0.0
 11
0.1768141677390869
 21
0.4728823900886994
 31
0.0
  0
ARC
  5
FA4
330
F7B
100
AcDbEntity
  8
0
100
AcDbCircle
 10
0.1076978570241138
 20
0.3631055411833231
 30
0.0
 40
0.0625
100
AcDbArc
 50
261.4666575382462
 51
356.6079698645064
  0
LINE
  5
FA5
330
F7B
100
AcDbEntity
  8
0
100
AcDbLine
 10
0.0
 20
0.3160655321945409
 30
0.0
 11
0.0
 21
0.3536914306068937
 31
0.0
  0
LINE
  5
FA6
330
F7B
100
AcDbEntity
  8
0
100
AcDbLine
 10
0.0
 20
0.3536914306068937
 30
0.0
 11
0.0984237989149879
 21
0.3012974361631198
 31
0.0
  0
ENDBLK
  5
FA8
330
F7B
100
AcDbEntity
  8
0
100
AcDbBlockEnd
  0
BLOCK
  5
FD2
330
FAC
100
AcDbEntity
  8
0
100
AcDbBlockBegin
  2
u16049
 70
     0
 10
0.0
 20
0.0
 30
0.0
  3
u16049
  1

  0
INSERT
  5
FC7
330
FAC
100
AcDbEntity
  8
0
100
AcDbBlockReference
  2
b16049
 10
0.8149151151874943
 20
0.8838492247507919
 30
0.0
 50
135.5044089643444
  0
ENDBLK
  5
FD3
330
FAC
100
AcDbEntity
  8
0
100
AcDbBlockEnd
  0
BLOCK
  5
1101
330
10F6
100
AcDbEntity
  8
0
100
AcDbBlockBegin
  2
*D32
 70
     1
 10
0.0
 20
0.0
 30
0.0
  3
*D32
  1

  0
LINE
  5
10F7
330
10F6
100
AcDbEntity
  8
0
 62
     0
370
    -2
100
AcDbLine
 10
10.37856720366161
 20
-9.629590056026103
 30
0.0
 11
10.37856720366161
 21
-6.97499711306993
 31
0.0
  0
LINE
  5
10F8
330
10F6
100
AcDbEntity
  8
0
 62
     0
370
    -2
100
AcDbLine
 10
16.22601641512005
 20
-7.65403354046393
 30
0.0
 11
16.22601641512005
 21
-6.97499711306993
 31
0.0
  0
LINE
  5
10F9
330
10F6
100
AcDbEntity
  8
0
 62
     0
370
    -2
100
AcDbLine
 10
10.55856720366161
 20
-7.15499711306993
 30
0.0
 11
12.76229180939083
 21
-7.15499711306993
 31
0.0
  0
LINE
  5
10FA
330
10F6
100
AcDbEntity
  8
0
 62
     0
370
    -2
100
AcDbLine
 10
16.04601641512005
 20
-7.15499711306993
 30
0.0
 11
13.84229180939083
 21
-7.15499711306993
 31
0.0
  0
SOLID
  5
10FB
330
10F6
100
AcDbEntity
  8
0
 62
     0
100
AcDbTrace
 10
10.55856720366161
 20
-7.12499711306993
 30
0.0
 11
10.55856720366161
 21
-7.18499711306993
 31
0.0
 12
10.37856720366161
 22
-7.15499711306993
 32
0.0
 13
10.37856720366161
 23
-7.15499711306993
 33
0.0
  0
SOLID
  5
10FC
330
10F6
100
AcDbEntity
  8
0
 62
     0
100
AcDbTrace
 10
16.04601641512005
 20
-7.18499711306993
 30
0.0
 11
16.04601641512005
 21
-7.12499711306993
 31
0.0
 12
16.22601641512005
 22
-7.15499711306993
 32
0.0
 13
16.22601641512005
 23
-7.15499711306993
 33
0.0
  0
MTEXT
  5
10FD
330
10F6
100
AcDbEntity
  8
0
 62
     0
100
AcDbMText
 10
13.30229180939083
 20
-7.15499711306993
 30
0.0
 40
0.18
 41
0.0
 46
0.0
 71
     5
 72
     1
  1
\A1;5.8474
 73
     1
 44
1.0
  0
POINT
  5
10FE
330
10F6
100
AcDbEntity
  8
DEFPOINTS
 62
     0
100
AcDbPoint
 10
10.37856720366161
 20
-9.692090056026103
 30
0.0
  0
POINT
  5
10FF
330
10F6
100
AcDbEntity
  8
DEFPOINTS
 62
     0
100
AcDbPoint
 10
16.22601641512005
 20
-7.71653354046393
 30
0.0
  0
POINT
  5
1100
330
10F6
100
AcDbEntity
  8
DEFPOINTS
 62
     0
100
AcDbPoint
 10
16.22601641512005
 20
-7.15499711306993
 30
0.0
  0
ENDBLK
  5
1102
330
10F6
100
AcDbEntity
  8
0
100
AcDbBlockEnd
  0
ENDSEC
  0
SECTION
  2
ENTITIES
  0
CIRCLE
  5
492
330
1F
100
AcDbEntity
  8
0
100
AcDbCircle
 10
0.0
 20
0.0
 30
0.0
 40
0.0
  0
CIRCLE
  5
493
330
1F
100
AcDbEntity
  8
0
100
AcDbCircle
 10
0.0
 20
0.0
 30
0.0
 40
0.0
  0
CIRCLE
  5
494
330
1F
100
AcDbEntity
  8
0
100
AcDbCircle
 10
0.0
 20
0.0
 30
0.0
 40
0.0
  0
CIRCLE
  5
683
330
1F
100
AcDbEntity
  8
0
100
AcDbCircle
 10
10.04887856727789
 20
-0.6070183367768596
 30
0.0
 40
0.0
  0
LWPOLYLINE
  5
10AF
102
{ACAD_REACTORS
102
}
330
1F
100
AcDbEntity
  8
0
100
AcDbPolyline
 90
        4
 70
     1
 43
0.0
 10
5.848288252508128
 20
0.0
 10
2.898288252508132
 20
0.0
 10
2.898288252508132
 20
4.311999999999998
 10
5.848288252508128
 20
4.311999999999998
  0
CIRCLE
  5
10B9
330
1F
100
AcDbEntity
  8
0
100
AcDbCircle
 10
2.295664905541753
 20
3.870109811227967
 30
0.0
 40
0.15625
  0
CIRCLE
  5
10BA
330
1F
100
AcDbEntity
  8
0
100
AcDbCircle
 10
2.295664905541753
 20
3.870109811227967
 30
0.0
 40
0.25
  0
CIRCLE
  5
10BC
330
1F
100
AcDbEntity
  8
holes_trace
100
AcDbCircle
 10
2.295664905541753
 20
3.870109811227967
 30
0.0
 40
0.03125
  0
CIRCLE
  5
1106
330
1F
100
AcDbEntity
  8
holes_trace
100
AcDbCircle
 10
2.214744591699538
 20
0.529522010892947
 30
0.0
 40
0.03125
  0
CIRCLE
  5
1107
330
1F
100
AcDbEntity
  8
holes_trace
100
AcDbCircle
 10
1.732468745786956
 20
0.8769596729240072
 30
0.0
 40
0.03125
  0
CIRCLE
  5
1112
330
1F
100
AcDbEntity
  8
holes_trace
100
AcDbCircle
 10
0.1908807345714893
 20
3.432480033263587
 30
0.0
 40
0.03125
  0
CIRCLE
  5
1113
330
1F
100
AcDbEntity
  8
holes_trace
100
AcDbCircle
 10
2.294141423142711
 20
2.592542545206202
 30
0.0
 40
0.0155
  0
LWPOLYLINE
  5
1124
330
1F
100
AcDbEntity
  8
0
100
AcDbPolyline
 90
       17
 70
     0
 43
0.0
 10
2.237867589931816
 20
2.66752466437973
 10
2.326722242236627
 20
2.816253020715834
 10
2.363843895065101
 20
2.822392330336525
 10
2.328211589843789
 20
2.716738586099762
 42
0.4407466998523041
 10
2.397236259302317
 20
2.65551610401198
 10
2.51028776941105
 20
2.667395793594544
 10
2.509983279283989
 20
2.529565561787957
 10
2.387753121715405
 20
2.529835588731384
 42
0.1622776601683793
 10
2.350225598691338
 20
2.517418462828905
 42
-0.3333333333333451
 10
2.237725873214117
 20
2.51766699361388
 42
0.1622776601683939
 10
2.200253579253377
 20
2.530249806706339
 10
2.106503808022363
 20
2.530456915693815
 42
-0.4142135623731033
 10
2.044142033193338
 20
2.593094835839477
 10
2.044142033193338
 20
2.593094835839479
 42
-0.4142135623730784
 10
2.106779953338996
 20
2.655456610668502
 10
2.200529724570017
 20
2.655249501681029
 42
0.1622776601683545
 10
2.238057247594085
 20
2.667666627583506
  0
LWPOLYLINE
  5
1173
330
1F
100
AcDbEntity
  8
0
100
AcDbPolyline
 90
       11
 70
     1
 43
0.0
 10
-0.1229233396471163
 20
1.923902215448473
 10
-0.1237623806968053
 20
0.3779670504018835
 42
0.4142135623730971
 10
0.1261018974702792
 20
0.1278314022106617
 10
1.73206169075075
 20
0.1269597833865515
 42
3.907407857816688
 10
1.10026208903508
 20
0.4734565835199565
 42
-0.5924528675939622
 10
1.047544279719406
 20
0.3773313352748318
 10
0.276237560389839
 20
0.3777499543825726
 42
-0.414213562373095
 10
0.0263732822227563
 20
0.6278856025737942
 10
0.0270766382603749
 20
1.923820804441231
 42
0.4142135623731034
 10
-0.0353894312813954
 20
1.986354716489037
 10
-0.0603894275993118
 20
1.986368284990243
 42
0.4142135623730951
  0
CIRCLE
  5
11A9
330
1F
100
AcDbEntity
  8
holes_trace
100
AcDbCircle
 10
4.116091853279999
 20
2.050436860850684
 30
0.0
 40
0.03125
  0
CIRCLE
  5
11AA
330
1F
100
AcDbEntity
  8
holes_trace
100
AcDbCircle
 10
4.562325429274315
 20
3.628537648557295
 30
0.0
 40
0.03125
  0
CIRCLE
  5
11AB
330
1F
100
AcDbEntity
  8
holes_trace
100
AcDbCircle
 10
3.507766919057195
 20
3.458108562573875
 30
0.0
 40
0.03125
  0
CIRCLE
  5
11AC
330
1F
100
AcDbEntity
  8
holes_trace
100
AcDbCircle
 10
3.42212040039225
 20
3.838315272333329
 30
0.0
 40
0.03125
  0
CIRCLE
  5
11AD
330
1F
100
AcDbEntity
  8
holes_trace
100
AcDbCircle
 10
2.969123729792107
 20
3.563389518876884
 30
0.0
 40
0.03125
  0
CIRCLE
  5
11AE
330
1F
100
AcDbEntity
  8
holes_trace
100
AcDbCircle
 10
3.781075429274318
 20
3.691037648557295
 30
0.0
 40
0.03125
  0
CIRCLE
  5
11C9
330
1F
100
AcDbEntity
  8
holes_trace
100
AcDbCircle
 10
0.1908807345714893
 20
3.432480033263587
 30
0.0
 40
0.03125
  0
CIRCLE
  5
11CF
330
1F
100
AcDbEntity
  8
holes_trace
100
AcDbCircle
 10
1.228947387012168
 20
3.575386293823333
 30
0.0
 40
0.03125
  0
CIRCLE
  5
11D0
330
1F
100
AcDbEntity
  8
holes_trace
100
AcDbCircle
 10
0.9233577429934705
 20
3.888469700391818
 30
0.0
 40
0.03125
  0
LWPOLYLINE
  5
11E9
330
1F
100
AcDbEntity
  8
0
100
AcDbPolyline
 90
       10
 70
     1
 43
0.0
 10
0.1275835456610572
 20
4.151906779784018
 10
0.2525834689271814
 20
4.1520452841658
 10
0.2533032699013374
 20
3.502426366855805
 42
-0.4472135954999676
 10
0.2534581225077607
 20
3.362672204053151
 10
0.2541086712910199
 20
2.775553248376232
 42
-0.4142135623730987
 10
0.1916779618488491
 20
2.71298403455228
 10
0.1916779618488487
 20
2.71298403455228
 42
-0.4142135623730915
 10
0.129108748024897
 20
2.77541474399445
 10
0.1284581992416365
 20
3.362533699671371
 42
-0.4472135954999506
 10
0.1283033466352165
 20
3.502287862474022
  0
LINE
  5
121D
330
1F
100
AcDbEntity
  8
0
100
AcDbLine
 10
0.8583614458984266
 20
3.198217248933561
 30
0.0
 11
0.790913401431517
 21
3.129571054653192
 31
0.0
  0
ARC
  5
121E
330
1F
100
AcDbEntity
  8
0
100
AcDbCircle
 10
1.228947387012168
 20
3.575386293823333
 30
0.0
 40
0.6250000000000001
100
AcDbArc
 50
225.5044089643444
 51
315.5044089643443
  0
LINE
  5
121F
330
1F
100
AcDbEntity
  8
0
100
AcDbLine
 10
1.674762626182309
 20
3.137352308242682
 30
0.0
 11
1.60611643190194
 21
3.204800352709592
 31
0.0
  0
ARC
  5
1220
330
1F
100
AcDbEntity
  8
0
100
AcDbCircle
 10
1.228947387012168
 20
3.575386293823333
 30
0.0
 40
0.5287631115861056
100
AcDbArc
 50
315.5044089643444
 51
225.5044089643443
  0
ENDSEC
  0
SECTION
  2
OBJECTS
  0
DICTIONARY
  5
C
330
0
100
AcDbDictionary
281
     1
  3
ACAD_GROUP
350
D
  3
ACAD_IMAGE_VARS
350
DC
  3
ACAD_LAYOUT
350
461
  3
ACAD_MATERIAL
350
464
  3
ACAD_MLEADERSTYLE
350
4DB
  3
ACAD_MLINESTYLE
350
17
  3
ACAD_PLOTSETTINGS
350
484
  3
ACAD_PLOTSTYLENAME
350
485
  3
ACAD_SCALELIST
350
43F
  3
ACAD_TABLESTYLE
350
479
  3
ACAD_VISUALSTYLE
350
468
  3
ACDBVARIABLEDICTIONARY
350
66
  3
ACDB_RECOMPOSE_DATA
350
1224
  3
APPDATA
350
E3
  0
DICTIONARY
  5
480
330
2
100
AcDbDictionary
280
     1
281
     1
  3
ACAD_LAYERSTATES
360
481
  0
DICTIONARY
  5
D
102
{ACAD_REACTORS
330
C
102
}
330
C
100
AcDbDictionary
281
     1
  0
RASTERVARIABLES
  5
DC
102
{ACAD_REACTORS
330
C
102
}
330
C
100
AcDbRasterVariables
 90
        0
 70
     1
 71
     1
 72
     5
  0
DICTIONARY
  5
461
102
{ACAD_REACTORS
330
C
102
}
330
C
100
AcDbDictionary
281
     1
  3
Model
350
462
  3
Sheet 1
350
463
  0
DICTIONARY
  5
464
102
{ACAD_REACTORS
330
C
102
}
330
C
100
AcDbDictionary
281
     1
  3
ByBlock
350
466
  3
ByLayer
350
465
  3
Global
350
467
  0
DICTIONARY
  5
4DB
102
{ACAD_REACTORS
330
C
102
}
330
C
100
AcDbDictionary
281
     1
  0
DICTIONARY
  5
17
102
{ACAD_REACTORS
330
C
102
}
330
C
100
AcDbDictionary
281
     1
  3
STANDARD
350
18
  0
DICTIONARY
  5
484
102
{ACAD_REACTORS
330
C
102
}
330
C
100
AcDbDictionary
281
     1
  0
ACDBDICTIONARYWDFLT
  5
485
102
{ACAD_REACTORS
330
C
102
}
330
C
100
AcDbDictionary
281
     1
  3
Normal
350
486
100
AcDbDictionaryWithDefault
340
486
  0
DICTIONARY
  5
43F
102
{ACAD_REACTORS
330
C
102
}
330
C
100
AcDbDictionary
281
     1
  3
A0
350
440
  3
A1
350
441
  3
A2
350
442
  3
A3
350
443
  3
A4
350
444
  3
A5
350
445
  3
A6
350
446
  3
A7
350
447
  3
A8
350
448
  3
A9
350
449
  3
B0
350
44A
  3
B1
350
44B
  3
B2
350
44C
  3
B3
350
44D
  3
B4
350
44E
  3
B5
350
44F
  3
B6
350
450
  3
B7
350
451
  3
B8
350
452
  3
B9
350
453
  3
C0
350
454
  3
C1
350
455
  3
C2
350
456
  3
C3
350
457
  3
C4
350
458
  3
C5
350
459
  3
C6
350
45A
  3
C7
350
45B
  3
C8
350
45C
  3
C9
350
45D
  3
D0
350
45E
  3
D1
350
45F
  3
D2
350
460
  0
DICTIONARY
  5
479
102
{ACAD_REACTORS
330
C
102
}
330
C
100
AcDbDictionary
281
     1
  3
Standard
350
47A
  0
DICTIONARY
  5
468
102
{ACAD_REACTORS
330
C
102
}
330
C
100
AcDbDictionary
281
     1
  3
2dWireframe
350
46D
  3
3D Hidden
350
46F
  3
3dWireframe
350
46E
  3
Basic
350
470
  3
Brighten
350
474
  3
ColorChange
350
478
  3
Conceptual
350
472
  3
Dim
350
473
  3
Facepattern
350
477
  3
Flat
350
469
  3
FlatWithEdges
350
46A
  3
Gouraud
350
46B
  3
GouraudWithEdges
350
46C
  3
Linepattern
350
476
  3
Realistic
350
471
  3
Thicken
350
475
  0
DICTIONARY
  5
66
102
{ACAD_REACTORS
330
C
102
}
330
C
100
AcDbDictionary
281
     1
  3
CANNOSCALE
350
47C
  3
CANNOSCALE
350
11B9
  3
CTABLESTYLE
350
716
  3
CTABLESTYLE
350
11BE
  3
DIMASSOC
350
67
  3
HIDETEXT
350
6B
  0
XRECORD
  5
1224
102
{ACAD_REACTORS
330
C
102
}
330
C
100
AcDbXrecord
280
     1
 90
        1
330
47A
  0
DICTIONARY
  5
E3
102
{ACAD_REACTORS
330
C
102
}
330
C
100
AcDbDictionary
281
     1
  0
DICTIONARY
  5
481
102
{ACAD_REACTORS
330
480
102
}
330
480
100
AcDbDictionary
281
     1
  3
ARGON_LAYERP_52
350
11AF
  0
LAYOUT
  5
462
102
{ACAD_REACTORS
330
461
102
}
330
461
100
AcDbPlotSettings
  1

  2
none_device
  4

  6

 40
0.0
 41
0.0
 42
0.0
 43
0.0
 44
0.0
 45
0.0
 46
0.0
 47
0.0
 48
0.0
 49
0.0
140
0.0
141
0.0
142
1.0
143
1.0
 70
  1712
 72
     0
 73
     0
 74
     0
  7

 75
     0
 76
     0
 77
     2
 78
   300
147
1.0
148
0.0
149
0.0
100
AcDbLayout
  1
Model
 70
     1
 71
     0
 10
0.0
 20
0.0
 11
12.0
 21
9.0
 12
0.0
 22
0.0
 32
0.0
 14
1.000000000000000E+20
 24
1.000000000000000E+20
 34
1.000000000000000E+20
 15
-1.000000000000000E+20
 25
-1.000000000000000E+20
 35
-1.000000000000000E+20
146
0.0
 13
0.0
 23
0.0
 33
0.0
 16
1.0
 26
0.0
 36
0.0
 17
0.0
 27
1.0
 37
0.0
 76
     0
330
1F
331
94
  0
LAYOUT
  5
463
102
{ACAD_REACTORS
330
461
102
}
330
461
100
AcDbPlotSettings
  1

  2
none_device
  4

  6

 40
0.0
 41
0.0
 42
0.0
 43
0.0
 44
0.0
 45
0.0
 46
0.0
 47
0.0
 48
0.0
 49
0.0
140
0.0
141
0.0
142
1.0
143
1.0
 70
   688
 72
     0
 73
     0
 74
     5
  7

 75
    16
 76
     0
 77
     2
 78
   300
147
1.0
148
0.0
149
0.0
100
AcDbLayout
  1
Sheet 1
 70
     1
 71
     1
 10
0.0
 20
0.0
 11
0.0
 21
0.0
 12
0.0
 22
0.0
 32
0.0
 14
0.0
 24
0.0
 34
0.0
 15
0.0
 25
0.0
 35
0.0
146
0.0
 13
0.0
 23
0.0
 33
0.0
 16
1.0
 26
0.0
 36
0.0
 17
0.0
 27
1.0
 37
0.0
 76
     0
330
58
  0
MATERIAL
  5
466
102
{ACAD_REACTORS
330
464
102
}
330
464
100
AcDbMaterial
  1
ByBlock
 72
     1
 94
      127
  0
MATERIAL
  5
465
102
{ACAD_REACTORS
330
464
102
}
330
464
100
AcDbMaterial
  1
ByLayer
 72
     1
 94
      127
  0
MATERIAL
  5
467
102
{ACAD_REACTORS
330
464
102
}
330
464
100
AcDbMaterial
  1
Global
 72
     1
 94
      127
  0
MLINESTYLE
  5
18
102
{ACAD_REACTORS
330
17
102
}
330
17
100
AcDbMlineStyle
  2
STANDARD
 70
     0
  3

 62
   256
 51
90.0
 52
90.0
 71
     2
 49
0.5
 62
   256
  6
BYLAYER
 49
-0.5
 62
   256
  6
BYLAYER
  0
ACDBPLACEHOLDER
  5
486
102
{ACAD_REACTORS
330
485
102
}
330
485
  0
SCALE
  5
440
102
{ACAD_REACTORS
330
43F
102
}
330
43F
100
AcDbScale
 70
     0
300
1:1
140
1.0
141
1.0
290
     1
  0
SCALE
  5
441
102
{ACAD_REACTORS
330
43F
102
}
330
43F
100
AcDbScale
 70
     0
300
1:2
140
1.0
141
2.0
290
     0
  0
SCALE
  5
442
102
{ACAD_REACTORS
330
43F
102
}
330
43F
100
AcDbScale
 70
     0
300
1:4
140
1.0
141
4.0
290
     0
  0
SCALE
  5
443
102
{ACAD_REACTORS
330
43F
102
}
330
43F
100
AcDbScale
 70
     0
300
1:5
140
1.0
141
5.0
290
     0
  0
SCALE
  5
444
102
{ACAD_REACTORS
330
43F
102
}
330
43F
100
AcDbScale
 70
     0
300
1:8
140
1.0
141
8.0
290
     0
  0
SCALE
  5
445
102
{ACAD_REACTORS
330
43F
102
}
330
43F
100
AcDbScale
 70
     0
300
1:10
140
1.0
141
10.0
290
     0
  0
SCALE
  5
446
102
{ACAD_REACTORS
330
43F
102
}
330
43F
100
AcDbScale
 70
     0
300
1:16
140
1.0
141
16.0
290
     0
  0
SCALE
  5
447
102
{ACAD_REACTORS
330
43F
102
}
330
43F
100
AcDbScale
 70
     0
300
1:20
140
1.0
141
20.0
290
     0
  0
SCALE
  5
448
102
{ACAD_REACTORS
330
43F
102
}
330
43F
100
AcDbScale
 70
     0
300
1:30
140
1.0
141
30.0
290
     0
  0
SCALE
  5
449
102
{ACAD_REACTORS
330
43F
102
}
330
43F
100
AcDbScale
 70
     0
300
1:40
140
1.0
141
40.0
290
     0
  0
SCALE
  5
44A
102
{ACAD_REACTORS
330
43F
102
}
330
43F
100
AcDbScale
 70
     0
300
1:50
140
1.0
141
50.0
290
     0
  0
SCALE
  5
44B
102
{ACAD_REACTORS
330
43F
102
}
330
43F
100
AcDbScale
 70
     0
300
1:100
140
1.0
141
100.0
290
     0
  0
SCALE
  5
44C
102
{ACAD_REACTORS
330
43F
102
}
330
43F
100
AcDbScale
 70
     0
300
2:1
140
2.0
141
1.0
290
     0
  0
SCALE
  5
44D
102
{ACAD_REACTORS
330
43F
102
}
330
43F
100
AcDbScale
 70
     0
300
4:1
140
4.0
141
1.0
290
     0
  0
SCALE
  5
44E
102
{ACAD_REACTORS
330
43F
102
}
330
43F
100
AcDbScale
 70
     0
300
8:1
140
8.0
141
1.0
290
     0
  0
SCALE
  5
44F
102
{ACAD_REACTORS
330
43F
102
}
330
43F
100
AcDbScale
 70
     0
300
10:1
140
10.0
141
1.0
290
     0
  0
SCALE
  5
450
102
{ACAD_REACTORS
330
43F
102
}
330
43F
100
AcDbScale
 70
     0
300
100:1
140
100.0
141
1.0
290
     0
  0
SCALE
  5
451
102
{ACAD_REACTORS
330
43F
102
}
330
43F
100
AcDbScale
 70
     0
300
1/128" = 1'-0"
140
0.0078125
141
12.0
290
     0
  0
SCALE
  5
452
102
{ACAD_REACTORS
330
43F
102
}
330
43F
100
AcDbScale
 70
     0
300
1/64" = 1'-0"
140
0.015625
141
12.0
290
     0
  0
SCALE
  5
453
102
{ACAD_REACTORS
330
43F
102
}
330
43F
100
AcDbScale
 70
     0
300
1/32" = 1'-0"
140
0.03125
141
12.0
290
     0
  0
SCALE
  5
454
102
{ACAD_REACTORS
330
43F
102
}
330
43F
100
AcDbScale
 70
     0
300
1/16" = 1'-0"
140
0.0625
141
12.0
290
     0
  0
SCALE
  5
455
102
{ACAD_REACTORS
330
43F
102
}
330
43F
100
AcDbScale
 70
     0
300
3/32" = 1'-0"
140
0.09375
141
12.0
290
     0
  0
SCALE
  5
456
102
{ACAD_REACTORS
330
43F
102
}
330
43F
100
AcDbScale
 70
     0
300
1/8" = 1'-0"
140
0.125
141
12.0
290
     0
  0
SCALE
  5
457
102
{ACAD_REACTORS
330
43F
102
}
330
43F
100
AcDbScale
 70
     0
300
3/16" = 1'-0"
140
0.1875
141
12.0
290
     0
  0
SCALE
  5
458
102
{ACAD_REACTORS
330
43F
102
}
330
43F
100
AcDbScale
 70
     0
300
1/4" = 1'-0"
140
0.25
141
12.0
290
     0
  0
SCALE
  5
459
102
{ACAD_REACTORS
330
43F
102
}
330
43F
100
AcDbScale
 70
     0
300
3/8" = 1'-0"
140
0.375
141
12.0
290
     0
  0
SCALE
  5
45A
102
{ACAD_REACTORS
330
43F
102
}
330
43F
100
AcDbScale
 70
     0
300
1/2" = 1'-0"
140
0.5
141
12.0
290
     0
  0
SCALE
  5
45B
102
{ACAD_REACTORS
330
43F
102
}
330
43F
100
AcDbScale
 70
     0
300
3/4" = 1'-0"
140
0.75
141
12.0
290
     0
  0
SCALE
  5
45C
102
{ACAD_REACTORS
330
43F
102
}
330
43F
100
AcDbScale
 70
     0
300
1" = 1'-0"
140
1.0
141
12.0
290
     0
  0
SCALE
  5
45D
102
{ACAD_REACTORS
330
43F
102
}
330
43F
100
AcDbScale
 70
     0
300
1-1/2" = 1'-0"
140
1.5
141
12.0
290
     0
  0
SCALE
  5
45E
102
{ACAD_REACTORS
330
43F
102
}
330
43F
100
AcDbScale
 70
     0
300
3" = 1'-0"
140
3.0
141
12.0
290
     0
  0
SCALE
  5
45F
102
{ACAD_REACTORS
330
43F
102
}
330
43F
100
AcDbScale
 70
     0
300
6" = 1'-0"
140
6.0
141
12.0
290
     0
  0
SCALE
  5
460
102
{ACAD_REACTORS
330
43F
102
}
330
43F
100
AcDbScale
 70
     0
300
1'-0" = 1'-0"
140
12.0
141
12.0
290
     0
  0
TABLESTYLE
  5
47A
102
{ACAD_REACTORS
330
479
102
}
102
{ACAD_XDICTIONARY
360
713
102
}
330
479
100
AcDbTableStyle
  3
Standard
 70
     0
 71
     0
 40
0.06
 41
0.06
280
     0
281
     0
  7
STANDARD
140
0.18
170
     2
 62
     0
 63
   257
283
     0
 90
        4
 91
        0
  1

274
    -2
284
     1
 64
     0
275
    -2
285
     1
 65
     0
276
    -2
286
     1
 66
     0
277
    -2
287
     1
 67
     0
278
    -2
288
     1
 68
     0
279
    -2
289
     1
 69
     0
  7
STANDARD
140
0.25
170
     5
 62
     0
 63
   257
283
     0
 90
        4
 91
        0
  1

274
    -2
284
     1
 64
     0
275
    -2
285
     1
 65
     0
276
    -2
286
     1
 66
     0
277
    -2
287
     1
 67
     0
278
    -2
288
     1
 68
     0
279
    -2
289
     1
 69
     0
  7
STANDARD
140
0.18
170
     5
 62
     0
 63
   257
283
     0
 90
        4
 91
        0
  1

274
    -2
284
     1
 64
     0
275
    -2
285
     1
 65
     0
276
    -2
286
     1
 66
     0
277
    -2
287
     1
 67
     0
278
    -2
288
     1
 68
     0
279
    -2
289
     1
 69
     0
  0
VISUALSTYLE
  5
46D
102
{ACAD_REACTORS
330
468
102
}
330
468
100
AcDbVisualStyle
  2
2dWireframe
 70
     4
177
     2
291
     0
 71
     0
176
     1
 72
     2
176
     1
 73
     0
176
     1
 90
        0
176
     1
 40
-0.6
176
     1
 41
-30.0
176
     1
 62
     5
 63
     7
421
 16777215
176
     1
 74
     1
176
     1
 91
        4
176
     1
 64
     7
176
     1
 65
   257
176
     1
 75
     1
176
     1
175
     1
176
     1
 42
1.0
176
     1
 92
        0
176
     1
 66
   257
176
     1
 43
1.0
176
     1
 76
     1
176
     1
 77
     6
176
     1
 78
     2
176
     1
 67
     7
176
     1
 79
     5
176
     1
170
     0
176
     1
171
     0
176
     1
290
     0
176
     1
 93
        1
176
     1
 44
0.0
176
     1
173
     0
176
     1
  0
VISUALSTYLE
  5
46F
102
{ACAD_REACTORS
330
468
102
}
330
468
100
AcDbVisualStyle
  2
3D Hidden
 70
     6
177
     2
291
     0
 71
     1
176
     1
 72
     2
176
     1
 73
     2
176
     1
 90
        0
176
     1
 40
-0.6
176
     1
 41
-30.0
176
     1
 62
     5
 63
     7
421
 16777215
176
     1
 74
     2
176
     1
 91
        2
176
     1
 64
     7
176
     1
 65
   257
176
     1
 75
     2
176
     1
175
     1
176
     1
 42
40.0
176
     1
 92
        0
176
     1
 66
   257
176
     1
 43
1.0
176
     1
 76
     1
176
     1
 77
     6
176
     1
 78
     2
176
     1
 67
     7
176
     1
 79
     3
176
     1
170
     0
176
     1
171
     0
176
     1
290
     0
176
     1
 93
        1
176
     1
 44
0.0
176
     1
173
     0
176
     1
  0
VISUALSTYLE
  5
46E
102
{ACAD_REACTORS
330
468
102
}
330
468
100
AcDbVisualStyle
  2
3dWireframe
 70
     5
177
     2
291
     0
 71
     0
176
     1
 72
     2
176
     1
 73
     0
176
     1
 90
        0
176
     1
 40
-0.6
176
     1
 41
-30.0
176
     1
 62
     5
 63
     7
421
 16777215
176
     1
 74
     1
176
     1
 91
        4
176
     1
 64
     7
176
     1
 65
   257
176
     1
 75
     1
176
     1
175
     1
176
     1
 42
1.0
176
     1
 92
        0
176
     1
 66
   257
176
     1
 43
1.0
176
     1
 76
     1
176
     1
 77
     6
176
     1
 78
     2
176
     1
 67
     7
176
     1
 79
     5
176
     1
170
     0
176
     1
171
     0
176
     1
290
     0
176
     1
 93
        1
176
     1
 44
0.0
176
     1
173
     0
176
     1
  0
VISUALSTYLE
  5
470
102
{ACAD_REACTORS
330
468
102
}
330
468
100
AcDbVisualStyle
  2
Basic
 70
     7
177
     2
291
     1
 71
     1
176
     1
 72
     0
176
     1
 73
     1
176
     1
 90
        0
176
     1
 40
-0.6
176
     1
 41
-30.0
176
     1
 62
     5
 63
     7
421
 16777215
176
     1
 74
     0
176
     1
 91
        4
176
     1
 64
     7
176
     1
 65
   257
176
     1
 75
     1
176
     1
175
     1
176
     1
 42
1.0
176
     1
 92
        8
176
     1
 66
     7
176
     1
 43
1.0
176
     1
 76
     1
176
     1
 77
     6
176
     1
 78
     2
176
     1
 67
     7
176
     1
 79
     5
176
     1
170
     0
176
     1
171
     0
176
     1
290
     0
176
     1
 93
        1
176
     1
 44
0.0
176
     1
173
     0
176
     1
  0
VISUALSTYLE
  5
474
102
{ACAD_REACTORS
330
468
102
}
330
468
100
AcDbVisualStyle
  2
Brighten
 70
    12
177
     2
291
     1
 71
     2
176
     1
 72
     2
176
     1
 73
     0
176
     1
 90
        0
176
     1
 40
-0.6
176
     1
 41
-30.0
176
     1
 62
     5
 63
     7
421
 16777215
176
     1
 74
     1
176
     1
 91
        4
176
     1
 64
     7
176
     1
 65
   257
176
     1
 75
     1
176
     1
175
     1
176
     1
 42
1.0
176
     1
 92
        8
176
     1
 66
     7
176
     1
 43
1.0
176
     1
 76
     1
176
     1
 77
     6
176
     1
 78
     2
176
     1
 67
     7
176
     1
 79
     5
176
     1
170
     0
176
     1
171
     0
176
     1
290
     0
176
     1
 93
        1
176
     1
 44
50.0
176
     1
173
     0
176
     1
  0
VISUALSTYLE
  5
478
102
{ACAD_REACTORS
330
468
102
}
330
468
100
AcDbVisualStyle
  2
ColorChange
 70
    16
177
     2
291
     1
 71
     2
176
     1
 72
     2
176
     1
 73
     3
176
     1
 90
        0
176
     1
 40
-0.6
176
     1
 41
-30.0
176
     1
 62
     5
 63
     8
421
  8421504
176
     1
 74
     1
176
     1
 91
        4
176
     1
 64
     7
176
     1
 65
   257
176
     1
 75
     1
176
     1
175
     1
176
     1
 42
1.0
176
     1
 92
        8
176
     1
 66
     8
424
  8421504
176
     1
 43
1.0
176
     1
 76
     1
176
     1
 77
     6
176
     1
 78
     2
176
     1
 67
     7
176
     1
 79
     5
176
     1
170
     0
176
     1
171
     0
176
     1
290
     0
176
     1
 93
        1
176
     1
 44
0.0
176
     1
173
     0
176
     1
  0
VISUALSTYLE
  5
472
102
{ACAD_REACTORS
330
468
102
}
330
468
100
AcDbVisualStyle
  2
Conceptual
 70
     9
177
     2
291
     0
 71
     3
176
     1
 72
     2
176
     1
 73
     0
176
     1
 90
        0
176
     1
 40
-0.6
176
     1
 41
-30.0
176
     1
 62
     5
 63
     7
421
 16777215
176
     1
 74
     2
176
     1
 91
        2
176
     1
 64
     7
176
     1
 65
   257
176
     1
 75
     1
176
     1
175
     1
176
     1
 42
40.0
176
     1
 92
        8
176
     1
 66
     7
176
     1
 43
1.0
176
     1
 76
     1
176
     1
 77
     6
176
     1
 78
     2
176
     1
 67
     7
176
     1
 79
     3
176
     1
170
     0
176
     1
171
     0
176
     1
290
     0
176
     1
 93
        1
176
     1
 44
0.0
176
     1
173
     0
176
     1
  0
VISUALSTYLE
  5
473
102
{ACAD_REACTORS
330
468
102
}
330
468
100
AcDbVisualStyle
  2
Dim
 70
    11
177
     2
291
     1
 71
     2
176
     1
 72
     2
176
     1
 73
     0
176
     1
 90
        0
176
     1
 40
-0.6
176
     1
 41
-30.0
176
     1
 62
     5
 63
     7
421
 16777215
176
     1
 74
     1
176
     1
 91
        4
176
     1
 64
     7
176
     1
 65
   257
176
     1
 75
     1
176
     1
175
     1
176
     1
 42
1.0
176
     1
 92
        8
176
     1
 66
     7
176
     1
 43
1.0
176
     1
 76
     1
176
     1
 77
     6
176
     1
 78
     2
176
     1
 67
     7
176
     1
 79
     5
176
     1
170
     0
176
     1
171
     0
176
     1
290
     0
176
     1
 93
        1
176
     1
 44
-50.0
176
     1
173
     0
176
     1
  0
VISUALSTYLE
  5
477
102
{ACAD_REACTORS
330
468
102
}
330
468
100
AcDbVisualStyle
  2
Facepattern
 70
    15
177
     2
291
     1
 71
     2
176
     1
 72
     2
176
     1
 73
     0
176
     1
 90
        0
176
     1
 40
-0.6
176
     1
 41
-30.0
176
     1
 62
     5
 63
     7
421
 16777215
176
     1
 74
     1
176
     1
 91
        4
176
     1
 64
     7
176
     1
 65
   257
176
     1
 75
     1
176
     1
175
     1
176
     1
 42
1.0
176
     1
 92
        8
176
     1
 66
     7
176
     1
 43
1.0
176
     1
 76
     1
176
     1
 77
     6
176
     1
 78
     2
176
     1
 67
     7
176
     1
 79
     5
176
     1
170
     0
176
     1
171
     0
176
     1
290
     0
176
     1
 93
        1
176
     1
 44
0.0
176
     1
173
     0
176
     1
  0
VISUALSTYLE
  5
469
102
{ACAD_REACTORS
330
468
102
}
330
468
100
AcDbVisualStyle
  2
Flat
 70
     0
177
     2
291
     1
 71
     2
176
     1
 72
     1
176
     1
 73
     1
176
     1
 90
        2
176
     1
 40
-0.6
176
     1
 41
30.0
176
     1
 62
     5
 63
     7
421
 16777215
176
     1
 74
     0
176
     1
 91
        4
176
     1
 64
     7
176
     1
 65
   257
176
     1
 75
     1
176
     1
175
     1
176
     1
 42
1.0
176
     1
 92
        8
176
     1
 66
     7
176
     1
 43
1.0
176
     1
 76
     1
176
     1
 77
     6
176
     1
 78
     2
176
     1
 67
     7
176
     1
 79
     5
176
     1
170
     0
176
     1
171
     0
176
     1
290
     0
176
     1
 93
       13
176
     1
 44
0.0
176
     1
173
     0
176
     1
  0
VISUALSTYLE
  5
46A
102
{ACAD_REACTORS
330
468
102
}
330
468
100
AcDbVisualStyle
  2
FlatWithEdges
 70
     1
177
     2
291
     1
 71
     2
176
     1
 72
     1
176
     1
 73
     1
176
     1
 90
        2
176
     1
 40
-0.6
176
     1
 41
30.0
176
     1
 62
     5
 63
     7
421
 16777215
176
     1
 74
     1
176
     1
 91
        4
176
     1
 64
     7
176
     1
 65
   257
176
     1
 75
     1
176
     1
175
     1
176
     1
 42
1.0
176
     1
 92
        0
176
     1
 66
   257
176
     1
 43
1.0
176
     1
 76
     1
176
     1
 77
     6
176
     1
 78
     2
176
     1
 67
     7
176
     1
 79
     5
176
     1
170
     0
176
     1
171
     0
176
     1
290
     0
176
     1
 93
       13
176
     1
 44
0.0
176
     1
173
     0
176
     1
  0
VISUALSTYLE
  5
46B
102
{ACAD_REACTORS
330
468
102
}
330
468
100
AcDbVisualStyle
  2
Gouraud
 70
     2
177
     2
291
     1
 71
     2
176
     1
 72
     2
176
     1
 73
     1
176
     1
 90
        2
176
     1
 40
-0.6
176
     1
 41
30.0
176
     1
 62
     5
 63
     7
421
 16777215
176
     1
 74
     0
176
     1
 91
        4
176
     1
 64
     7
176
     1
 65
   257
176
     1
 75
     1
176
     1
175
     1
176
     1
 42
1.0
176
     1
 92
        0
176
     1
 66
     7
176
     1
 43
1.0
176
     1
 76
     1
176
     1
 77
     6
176
     1
 78
     2
176
     1
 67
     7
176
     1
 79
     5
176
     1
170
     0
176
     1
171
     0
176
     1
290
     0
176
     1
 93
       13
176
     1
 44
0.0
176
     1
173
     0
176
     1
  0
VISUALSTYLE
  5
46C
102
{ACAD_REACTORS
330
468
102
}
330
468
100
AcDbVisualStyle
  2
GouraudWithEdges
 70
     3
177
     2
291
     1
 71
     2
176
     1
 72
     2
176
     1
 73
     1
176
     1
 90
        2
176
     1
 40
-0.6
176
     1
 41
30.0
176
     1
 62
     5
 63
     7
421
 16777215
176
     1
 74
     1
176
     1
 91
        4
176
     1
 64
     7
176
     1
 65
   257
176
     1
 75
     1
176
     1
175
     1
176
     1
 42
1.0
176
     1
 92
        0
176
     1
 66
   257
176
     1
 43
1.0
176
     1
 76
     1
176
     1
 77
     6
176
     1
 78
     2
176
     1
 67
     7
176
     1
 79
     5
176
     1
170
     0
176
     1
171
     0
176
     1
290
     0
176
     1
 93
       13
176
     1
 44
0.0
176
     1
173
     0
176
     1
  0
VISUALSTYLE
  5
476
102
{ACAD_REACTORS
330
468
102
}
330
468
100
AcDbVisualStyle
  2
Linepattern
 70
    14
177
     2
291
     1
 71
     2
176
     1
 72
     2
176
     1
 73
     0
176
     1
 90
        0
176
     1
 40
-0.6
176
     1
 41
-30.0
176
     1
 62
     5
 63
     7
421
 16777215
176
     1
 74
     1
176
     1
 91
        4
176
     1
 64
     7
176
     1
 65
   257
176
     1
 75
     7
176
     1
175
     7
176
     1
 42
1.0
176
     1
 92
        8
176
     1
 66
     7
176
     1
 43
1.0
176
     1
 76
     1
176
     1
 77
     6
176
     1
 78
     2
176
     1
 67
     7
176
     1
 79
     5
176
     1
170
     0
176
     1
171
     0
176
     1
290
     0
176
     1
 93
        1
176
     1
 44
0.0
176
     1
173
     0
176
     1
  0
VISUALSTYLE
  5
471
102
{ACAD_REACTORS
330
468
102
}
330
468
100
AcDbVisualStyle
  2
Realistic
 70
     8
177
     2
291
     0
 71
     2
176
     1
 72
     2
176
     1
 73
     0
176
     1
 90
        0
176
     1
 40
-0.6
176
     1
 41
-30.0
176
     1
 62
     5
 63
     7
421
 16777215
176
     1
 74
     1
176
     1
 91
        0
176
     1
 64
     7
176
     1
 65
   257
176
     1
 75
     1
176
     1
175
     1
176
     1
 42
1.0
176
     1
 92
        8
176
     1
 66
     8
424
  7895160
176
     1
 43
1.0
176
     1
 76
     1
176
     1
 77
     6
176
     1
 78
     2
176
     1
 67
     7
176
     1
 79
     5
176
     1
170
     0
176
     1
171
     0
176
     1
290
     0
176
     1
 93
       13
176
     1
 44
0.0
176
     1
173
     0
176
     1
  0
VISUALSTYLE
  5
475
102
{ACAD_REACTORS
330
468
102
}
330
468
100
AcDbVisualStyle
  2
Thicken
 70
    13
177
     2
291
     1
 71
     2
176
     1
 72
     2
176
     1
 73
     0
176
     1
 90
        0
176
     1
 40
-0.6
176
     1
 41
-30.0
176
     1
 62
     5
 63
     7
421
 16777215
176
     1
 74
     1
176
     1
 91
        4
176
     1
 64
     7
176
     1
 65
   257
176
     1
 75
     1
176
     1
175
     1
176
     1
 42
1.0
176
     1
 92
       12
176
     1
 66
     7
176
     1
 43
1.0
176
     1
 76
     1
176
     1
 77
     6
176
     1
 78
     2
176
     1
 67
     7
176
     1
 79
     5
176
     1
170
     0
176
     1
171
     0
176
     1
290
     0
176
     1
 93
        1
176
     1
 44
0.0
176
     1
173
     0
176
     1
  0
DICTIONARYVAR
  5
47C
102
{ACAD_REACTORS
330
66
102
}
330
66
100
DictionaryVariables
280
     0
  1
1:1
  0
DICTIONARYVAR
  5
11B9
102
{ACAD_REACTORS
330
66
102
}
330
66
100
DictionaryVariables
280
     0
  1
1:1
  0
DICTIONARYVAR
  5
716
102
{ACAD_REACTORS
330
66
102
}
330
66
100
DictionaryVariables
280
     0
  1
Standard
  0
DICTIONARYVAR
  5
11BE
102
{ACAD_REACTORS
330
66
102
}
330
66
100
DictionaryVariables
280
     0
  1
Standard
  0
DICTIONARYVAR
  5
67
102
{ACAD_REACTORS
330
66
102
}
330
66
100
DictionaryVariables
280
     0
  1
2
  0
DICTIONARYVAR
  5
6B
102
{ACAD_REACTORS
330
66
102
}
330
66
100
DictionaryVariables
280
     0
  1
1
  0
XRECORD
  5
11AF
102
{ACAD_REACTORS
330
481
102
}
330
481
100
AcDbXrecord
280
     1
 91
     1023
301

290
     0
302
0
330
10
 90
        8
 62
     7
370
    -3
331
16
  1
Color_7
330
433
 90
        0
 62
     7
370
    -3
331
16
  1
Color_7
330
483
 90
        8
 62
     6
370
    -3
331
16
  1
Color_6
330
748
 90
        8
 62
     3
370
    -3
331
16
  1
Color_3
330
95C
 90
        8
 62
     1
370
    -3
331
16
  1
Color_1
330
DC4
 90
        8
 62
     5
370
    -3
331
16
  1
Color_5
330
DC9
 90
        8
 62
     7
370
    -3
331
16
  1
Color_7
  0
DICTIONARY
  5
713
330
47A
100
AcDbDictionary
280
     1
281
     1
  3
ACAD_ROUNDTRIP_2008_TABLESTYLE_CELLSTYLEMAP
360
1223
  0
CELLSTYLEMAP
  5
1223
102
{ACAD_REACTORS
330
713
102
}
330
713
100
AcDbCellStyleMap
 90
        3
300
CELLSTYLE
  1
TABLEFORMAT_BEGIN
 90
        5
170
     1
 91
        0
 92
    32768
 62
   257
 93
        1
300
CONTENTFORMAT
  1
CONTENTFORMAT_BEGIN
 90
        0
 91
        0
 92
        4
 93
        0
300

 40
0.0
140
1.0
 94
        5
 62
     0
340
11
144
0.25
309
CONTENTFORMAT_END
171
     1
301
MARGIN
  1
CELLMARGIN_BEGIN
 40
0.06
 40
0.06
 40
0.06
 40
0.06
 40
0.06
 40
0.06
309
CELLMARGIN_END
 94
        6
 95
        1
302
GRIDFORMAT
  1
GRIDFORMAT_BEGIN
 90
        0
 91
        1
 62
     0
 92
       -2
340
0
 93
        0
 40
0.045
309
GRIDFORMAT_END
 95
        2
302
GRIDFORMAT
  1
GRIDFORMAT_BEGIN
 90
        0
 91
        1
 62
     0
 92
       -2
340
0
 93
        0
 40
0.045
309
GRIDFORMAT_END
 95
        4
302
GRIDFORMAT
  1
GRIDFORMAT_BEGIN
 90
        0
 91
        1
 62
     0
 92
       -2
340
0
 93
        0
 40
0.045
309
GRIDFORMAT_END
 95
        8
302
GRIDFORMAT
  1
GRIDFORMAT_BEGIN
 90
        0
 91
        1
 62
     0
 92
       -2
340
0
 93
        0
 40
0.045
309
GRIDFORMAT_END
 95
       16
302
GRIDFORMAT
  1
GRIDFORMAT_BEGIN
 90
        0
 91
        1
 62
     0
 92
       -2
340
0
 93
        0
 40
0.045
309
GRIDFORMAT_END
 95
       32
302
GRIDFORMAT
  1
GRIDFORMAT_BEGIN
 90
        0
 91
        1
 62
     0
 92
       -2
340
0
 93
        0
 40
0.045
309
GRIDFORMAT_END
309
TABLEFORMAT_END
  1
CELLSTYLE_BEGIN
 90
        1
 91
        1
300
_TITLE
309
CELLSTYLE_END
300
CELLSTYLE
  1
TABLEFORMAT_BEGIN
 90
        5
170
     1
 91
        0
 92
        0
 62
   257
 93
        1
300
CONTENTFORMAT
  1
CONTENTFORMAT_BEGIN
 90
        0
 91
        0
 92
        4
 93
        0
300

 40
0.0
140
1.0
 94
        5
 62
     0
340
11
144
0.18
309
CONTENTFORMAT_END
171
     1
301
MARGIN
  1
CELLMARGIN_BEGIN
 40
0.06
 40
0.06
 40
0.06
 40
0.06
 40
0.06
 40
0.06
309
CELLMARGIN_END
 94
        6
 95
        1
302
GRIDFORMAT
  1
GRIDFORMAT_BEGIN
 90
        0
 91
        1
 62
     0
 92
       -2
340
0
 93
        0
 40
0.045
309
GRIDFORMAT_END
 95
        2
302
GRIDFORMAT
  1
GRIDFORMAT_BEGIN
 90
        0
 91
        1
 62
     0
 92
       -2
340
0
 93
        0
 40
0.045
309
GRIDFORMAT_END
 95
        4
302
GRIDFORMAT
  1
GRIDFORMAT_BEGIN
 90
        0
 91
        1
 62
     0
 92
       -2
340
0
 93
        0
 40
0.045
309
GRIDFORMAT_END
 95
        8
302
GRIDFORMAT
  1
GRIDFORMAT_BEGIN
 90
        0
 91
        1
 62
     0
 92
       -2
340
0
 93
        0
 40
0.045
309
GRIDFORMAT_END
 95
       16
302
GRIDFORMAT
  1
GRIDFORMAT_BEGIN
 90
        0
 91
        1
 62
     0
 92
       -2
340
0
 93
        0
 40
0.045
309
GRIDFORMAT_END
 95
       32
302
GRIDFORMAT
  1
GRIDFORMAT_BEGIN
 90
        0
 91
        1
 62
     0
 92
       -2
340
0
 93
        0
 40
0.045
309
GRIDFORMAT_END
309
TABLEFORMAT_END
  1
CELLSTYLE_BEGIN
 90
        2
 91
        1
300
_HEADER
309
CELLSTYLE_END
300
CELLSTYLE
  1
TABLEFORMAT_BEGIN
 90
        5
170
     1
 91
        0
 92
        0
 62
   257
 93
        1
300
CONTENTFORMAT
  1
CONTENTFORMAT_BEGIN
 90
        0
 91
        0
 92
        4
 93
        0
300

 40
0.0
140
1.0
 94
        2
 62
     0
340
11
144
0.18
309
CONTENTFORMAT_END
171
     1
301
MARGIN
  1
CELLMARGIN_BEGIN
 40
0.06
 40
0.06
 40
0.06
 40
0.06
 40
0.06
 40
0.06
309
CELLMARGIN_END
 94
        6
 95
        1
302
GRIDFORMAT
  1
GRIDFORMAT_BEGIN
 90
        0
 91
        1
 62
     0
 92
       -2
340
0
 93
        0
 40
0.045
309
GRIDFORMAT_END
 95
        2
302
GRIDFORMAT
  1
GRIDFORMAT_BEGIN
 90
        0
 91
        1
 62
     0
 92
       -2
340
0
 93
        0
 40
0.045
309
GRIDFORMAT_END
 95
        4
302
GRIDFORMAT
  1
GRIDFORMAT_BEGIN
 90
        0
 91
        1
 62
     0
 92
       -2
340
0
 93
        0
 40
0.045
309
GRIDFORMAT_END
 95
        8
302
GRIDFORMAT
  1
GRIDFORMAT_BEGIN
 90
        0
 91
        1
 62
     0
 92
       -2
340
0
 93
        0
 40
0.045
309
GRIDFORMAT_END
 95
       16
302
GRIDFORMAT
  1
GRIDFORMAT_BEGIN
 90
        0
 91
        1
 62
     0
 92
       -2
340
0
 93
        0
 40
0.045
309
GRIDFORMAT_END
 95
       32
302
GRIDFORMAT
  1
GRIDFORMAT_BEGIN
 90
        0
 91
        1
 62
     0
 92
       -2
340
0
 93
        0
 40
0.045
309
GRIDFORMAT_END
309
TABLEFORMAT_END
  1
CELLSTYLE_BEGIN
 90
        3
 91
        2
300
_DATA
309
CELLSTYLE_END
  0
ENDSEC
  0
EOF
